<?xml version="1.0" encoding="UTF-8" standalone="no"?>
<!-- Created with Inkscape (http://www.inkscape.org/) -->

<svg
   width="231.75493mm"
   height="149.56827mm"
   viewBox="0 0 231.75492 149.56827"
   version="1.1"
   id="svg1"
   xml:space="preserve"
   inkscape:version="1.3.2 (091e20e, 2023-11-25)"
   sodipodi:docname="coordinator-abstract-people-color.svg"
   xmlns:inkscape="http://www.inkscape.org/namespaces/inkscape"
   xmlns:sodipodi="http://sodipodi.sourceforge.net/DTD/sodipodi-0.dtd"
   xmlns="http://www.w3.org/2000/svg"
   xmlns:svg="http://www.w3.org/2000/svg"><sodipodi:namedview
     id="namedview1"
     pagecolor="#ffffff"
     bordercolor="#000000"
     borderopacity="0.25"
     inkscape:showpageshadow="2"
     inkscape:pageopacity="0.0"
     inkscape:pagecheckerboard="0"
     inkscape:deskcolor="#d1d1d1"
     inkscape:document-units="mm"
     inkscape:zoom="0.67132003"
     inkscape:cx="348.56699"
     inkscape:cy="312.81653"
     inkscape:window-width="1920"
     inkscape:window-height="1027"
     inkscape:window-x="322"
     inkscape:window-y="186"
     inkscape:window-maximized="0"
     inkscape:current-layer="layer1"
     showguides="true"
     showgrid="false"><sodipodi:guide
       position="104.98096,-42.832527"
       orientation="0,-1"
       id="guide3"
       inkscape:locked="false" /></sodipodi:namedview><defs
     id="defs1"><filter
       style="color-interpolation-filters:sRGB"
       inkscape:label="Greyscale"
       id="filter5"
       x="0"
       y="0"
       width="1"
       height="1"><feColorMatrix
         values="0 0 0 0 0 0 0 0 0 0 0 0 0 0 0 -0.239133 -0.72 -0.07 1 0 "
         id="feColorMatrix5" /></filter></defs><g
     inkscape:label="Layer 1"
     inkscape:groupmode="layer"
     id="layer1"
     transform="translate(24.465132,-29.007422)"><g
       id="g4"
       style="stroke:#000000;stroke-width:2.5;stroke-dasharray:none;stroke-opacity:1"><path
         style="fill:none;stroke:#000000;stroke-width:2.5;stroke-linecap:round;stroke-linejoin:round;stroke-dasharray:none;stroke-opacity:1"
         d="M 53.802591,70.909418 C 43.763476,72.458131 31.446378,78.036129 23.504654,93.833586"
         id="path2"
         sodipodi:nodetypes="cc" /><path
         style="fill:none;stroke:#000000;stroke-width:2.5;stroke-linecap:round;stroke-linejoin:round;stroke-dasharray:none;stroke-opacity:1"
         d="M 92.403098,97.550975 V 108.40976"
         id="path4"
         sodipodi:nodetypes="cc" /><path
         style="fill:none;stroke:#000000;stroke-width:2.5;stroke-linecap:round;stroke-linejoin:round;stroke-dasharray:none;stroke-opacity:1"
         d="m 128.2797,70.909418 c 10.03912,1.548713 22.35622,7.126711 30.29795,22.924168"
         id="path5"
         sodipodi:nodetypes="cc" /></g><g
       id="g5"
       style="filter:url(#filter5);fill:#000000;fill-opacity:1"><path
         d="m 19.195351,131.55094 c 0,1.48351 -1.003355,2.68755 -2.239587,2.68755 -1.236237,0 -2.239592,-1.20404 -2.239592,-2.68755 0,-1.48346 1.003355,-2.6875 2.239592,-2.6875 1.236232,0 2.239587,1.20404 2.239587,2.6875 z m -13.8854107,-2.6875 c -1.2362317,0 -2.2395917,1.20404 -2.2395917,2.6875 0,1.48351 1.00336,2.68755 2.2395917,2.68755 1.236232,0 2.239587,-1.20404 2.239587,-2.68755 0,-1.48346 -1.003355,-2.6875 -2.239587,-2.6875 z m 27.3229437,4.14413 c 0,3.16229 -1.764827,7.15054 -5.624062,8.78998 -3.696238,5.90349 -8.935061,10.35754 -15.875936,10.35754 -6.7026524,0 -12.265767,-4.59018 -15.876008,-10.35754 -3.8592343,-1.64121 -5.623993,-5.62949 -5.623993,-8.78998 0,-3.67827 1.3508784,-5.42156 2.5387602,-6.25108 -0.6987661,-2.7306 -1.8454092,-9.22001 1.7253479,-13.27452 1.6805897,-1.90812 4.414712,-2.75919 7.3817155,-2.28259 1.288172,-2.74481 6.4714667,-3.83592 9.8541774,-3.83592 5.375001,0 11.841117,1.14847 16.377582,6.29947 3.527827,4.00613 2.952714,10.286 2.486824,13.02368 1.211178,0.79902 2.635592,2.54231 2.635592,6.32096 z M 15.432882,141.4051 H 6.8328853 c 0,0 1.2147,3.37373 4.3000007,3.37373 3.203467,0 4.299996,-3.37373 4.299996,-3.37373 z m 12.654531,-11.66019 c -7.363767,0.70412 -13.935588,-5.47889 -16.255829,-9.44925 -0.144891,1.4495 0.333176,4.58135 1.736118,6.01111 -5.6885277,0.11434 -10.4543494,-2.85238 -13.36582537,-6.9302 -1.49958103,2.50654 -2.22522913,5.53264 -2.22522913,8.55527 0,1.29352 -1.3365902,2.16427 -2.5190573,1.63749 -0.2505423,-0.11289 -0.7811763,-0.18081 -1.2022401,0.0948 -1.7916452,1.16103 -1.6035263,7.49456 2.7824717,8.97983 0.4015409,0.13634 0.7399416,0.40853 0.9603562,0.77044 1.17353023,1.94574 2.42587863,3.54746 3.7374136,4.87694 1.651877,1.1341 1.891999,-3.35943 2.9867067,-4.87337 1.229053,-1.70029 4.398527,-2.01744 6.4105877,-0.57693 2.013821,-1.44051 5.181468,-1.12336 6.410589,0.57693 1.094707,1.51576 1.334762,6.00924 2.986707,4.87337 1.309702,-1.32767 2.562055,-2.9312 3.737407,-4.87694 0.220098,-0.36162 0.560692,-0.63454 0.960289,-0.77044 4.233709,-1.43333 4.65118,-7.49813 2.859535,-8.89924 z"
         id="path1-3"
         style="stroke-width:1.79167;fill:#000000;fill-opacity:1" /><path
         d="m 100.03899,143.41684 c 0,1.46496 -0.990803,2.65386 -2.211556,2.65386 -1.22075,0 -2.211552,-1.1889 -2.211552,-2.65386 0,-1.4649 0.990802,-2.65382 2.211552,-2.65382 1.220753,0 2.211556,1.18892 2.211556,2.65382 z m -13.71151,-2.65382 c -1.22075,0 -2.211552,1.18892 -2.211552,2.65382 0,1.46496 0.990802,2.65386 2.211552,2.65386 1.220751,0 2.211513,-1.1889 2.211513,-2.65386 0,-1.4649 -0.990762,-2.65382 -2.211513,-2.65382 z m 5.749996,14.78012 c 3.9542,0 5.307685,-4.16476 5.307685,-4.16476 H 86.76979 c 0,0 1.498545,4.16476 5.307686,4.16476 z m 23.000004,-11.94229 c 0,5.06884 -1.39951,10.22258 -3.41994,14.58376 -0.95892,2.06826 -2.05761,3.95954 -3.21473,5.57838 l -6.71599,-3.39167 c -2.75292,2.10007 -5.962254,3.39167 -9.649344,3.39167 -3.526121,0 -6.767353,-1.32513 -9.567989,-3.43409 l -6.797379,3.43409 c -1.157112,-1.61884 -2.255772,-3.51012 -3.214714,-5.57838 -2.020434,-4.36118 -3.41993,-9.51492 -3.41993,-14.58376 0,-13.42845 9.343333,-22.29938 23.000012,-22.29938 13.656654,0 23.000004,8.87093 23.000004,22.29938 z m -10.02976,7.58116 c 0.21719,-0.35719 0.55368,-0.62656 0.94825,-0.76078 3.72605,-1.26146 4.54696,-6.24362 3.18816,-8.39679 -11.634451,-0.68997 -19.266889,-5.94989 -22.41434,-11.18504 -3.993193,8.95757 -8.984169,11.72646 -12.142225,12.02188 -0.852801,3.0325 0.569705,6.55679 3.531386,7.55995 0.396571,0.13453 0.730672,0.40324 0.948337,0.76078 3.021772,5.00692 7.103444,9.0425 12.970188,9.0425 5.870255,0 9.950104,-4.04096 12.970244,-9.0425 z"
         id="path1-2"
         style="stroke-width:1.76923;fill:#000000;fill-opacity:1" /><path
         d="m 178.9897,130.52514 c 0,1.48355 -1.00332,2.68752 -2.23959,2.68752 -1.23622,0 -2.23959,-1.20397 -2.23959,-2.68752 0,-1.48345 1.00337,-2.68745 2.23959,-2.68745 1.23627,0 2.23959,1.204 2.23959,2.68745 z m -13.88541,-2.68745 c -1.23622,0 -2.23959,1.204 -2.23959,2.68745 0,1.48355 1.00337,2.68752 2.23959,2.68752 1.23627,0 2.23959,-1.20397 2.23959,-2.68752 0,-1.48345 -1.00332,-2.68745 -2.23959,-2.68745 z m 5.82299,9.59792 c -4.25528,-2.60505 -3.0262,3.75351 -8.95837,1.14487 0.89579,3.60487 6.28159,4.21576 8.95837,2.0443 2.67666,2.17146 8.06242,1.56057 8.95826,-2.0443 -5.93217,2.61049 -4.70314,-3.74817 -8.95826,-1.14487 z m 21.49997,-5.45383 c 0,3.16229 -1.7648,7.15055 -5.62406,8.7899 -3.67294,5.86593 -8.91351,10.35765 -15.87591,10.35765 -6.71703,0 -12.28733,-4.62607 -15.87783,-10.35765 -3.85745,-1.64109 -5.6222,-5.6294 -5.6222,-8.7899 0,-3.57441 1.45298,-6.76178 4.80698,-7.09322 l 0.0544,-0.0486 0.005,-0.034 c -0.44752,-3.4848 -0.6054,-8.81501 1.28822,-10.83419 1.01766,-1.08404 2.1805,-1.50324 3.66756,-1.01231 2.3184,-3.1623 6.18839,-4.82676 11.41652,-4.82676 8.3241,0 11.73902,4.33049 14.65043,7.99081 1.59998,2.01208 3.52782,4.02766 7.11121,3.91663 -1.4495,1.35809 -3.18742,2.42595 -5.07404,3.21604 0.0914,0.53903 0.16667,1.08219 0.21866,1.62501 3.31453,0.29592 4.85542,3.41317 4.85542,7.10401 z m -4.62253,-3.34321 c -0.42129,-0.27406 -0.94958,-0.20797 -1.20215,-0.0948 -1.18253,0.52479 -2.51915,-0.34403 -2.51915,-1.63759 0,-0.85818 -0.0607,-1.71461 -0.17929,-2.56209 -7.34401,1.66265 -15.66456,-0.41352 -18.57603,-6.21168 -4.25517,0.67173 -6.89788,4.22116 -7.57695,8.99593 h -0.005 c -0.15549,1.22369 -1.40644,1.89741 -2.49037,1.41543 -0.25268,-0.11128 -0.78121,-0.17931 -1.20401,0.0948 -1.79168,1.16634 -1.59998,7.49629 2.78421,8.97979 0.40137,0.13606 0.74,0.40818 0.95861,0.77042 3.06011,5.06861 7.19351,9.15721 13.13472,9.15721 5.94471,0 10.07627,-4.0922 13.13473,-9.15721 0.22012,-0.36152 0.56065,-0.6345 0.96027,-0.77042 4.38598,-1.48525 4.57413,-7.81879 2.78245,-8.97979 z"
         id="path1-6"
         style="stroke-width:1.79167;fill:#000000;fill-opacity:1" /><path
         style="color:#000000;display:none;fill:#000000;stroke-linecap:round;stroke-linejoin:round;stroke-dasharray:2.5, 7.5;-inkscape-stroke:none;fill-opacity:1"
         d="m 170.14062,97.792969 a 1.25,1.25 0 0 0 -1.22265,1.277343 1.25,1.25 0 0 0 1.27734,1.222658 c 0.81553,-0.0177 1.61895,-0.0189 2.40821,0.0215 a 1.25,1.25 0 0 0 1.3125,-1.183591 1.25,1.25 0 0 0 -1.1836,-1.3125 c -0.87546,-0.04482 -1.74123,-0.0438 -2.5918,-0.02539 z M 14.623047,97.824219 A 1.25,1.25 0 0 0 13.302734,99 a 1.25,1.25 0 0 0 1.175782,1.32031 c 0.80478,0.0462 1.608182,0.11865 2.40625,0.21875 a 1.25,1.25 0 0 0 1.394531,-1.085935 1.25,1.25 0 0 0 -1.083985,-1.394531 C 16.339708,97.951273 15.482131,97.87357 14.623047,97.824219 Z m -7.7441408,0.36914 c -0.8556777,0.135352 -1.7053145,0.304464 -2.546875,0.50586 a 1.25,1.25 0 0 0 -0.9257812,1.505861 1.25,1.25 0 0 0 1.5058594,0.92578 c 0.7792512,-0.18649 1.5669738,-0.34372 2.3574218,-0.46875 A 1.25,1.25 0 0 0 8.3085938,99.232422 1.25,1.25 0 0 0 6.8789062,98.193359 Z M 162.50781,98.429687 c -0.84522,0.130999 -1.68704,0.28554 -2.52539,0.462891 a 1.25,1.25 0 0 0 -0.96484,1.480472 1.25,1.25 0 0 0 1.48242,0.96484 c 0.79218,-0.16758 1.58891,-0.31324 2.39062,-0.4375 a 1.25,1.25 0 0 0 1.04493,-1.425781 1.25,1.25 0 0 0 -1.42774,-1.044922 z m 17.89649,0.728516 a 1.25,1.25 0 0 0 -1.5625,0.828125 1.25,1.25 0 0 0 0.82812,1.562502 c 0.76383,0.23493 1.51526,0.50081 2.25391,0.79883 a 1.25,1.25 0 0 0 1.62695,-0.69141 1.25,1.25 0 0 0 -0.69141,-1.62695 c -0.80693,-0.325572 -1.62596,-0.616084 -2.45507,-0.871097 z M 24.714844,99.648437 a 1.25,1.25 0 0 0 -1.546875,0.855473 1.25,1.25 0 0 0 0.855468,1.54687 c 0.783918,0.22589 1.565105,0.46937 2.345704,0.72461 a 1.25,1.25 0 0 0 1.576171,-0.79883 1.25,1.25 0 0 0 -0.798828,-1.57617 c -0.803489,-0.26273 -1.61406,-0.516359 -2.43164,-0.751953 z m 127.904296,1.373043 c -0.79679,0.28774 -1.58948,0.58941 -2.375,0.9004 a 1.25,1.25 0 0 0 -0.70117,1.62304 1.25,1.25 0 0 0 1.62305,0.70117 c 0.76409,-0.3025 1.53,-0.5947 2.30078,-0.87304 a 1.25,1.25 0 0 0 0.75195,-1.59961 1.25,1.25 0 0 0 -1.59961,-0.75196 z m -155.58789,0.34375 c -0.7750797,0.38971 -1.5335803,0.81085 -2.2734375,1.25977 a 1.25,1.25 0 0 0 -0.4199219,1.7168 1.25,1.25 0 0 0 1.7167969,0.41992 c 0.6849929,-0.41563 1.3856465,-0.80509 2.0996094,-1.16406 a 1.25,1.25 0 0 0 0.5546875,-1.67774 1.25,1.25 0 0 0 -1.6777344,-0.55469 z m 37.226562,1.59375 a 1.25,1.25 0 0 0 -1.611328,0.72461 1.25,1.25 0 0 0 0.72461,1.61133 l 1.541015,0.58594 0.796875,0.30273 a 1.25,1.25 0 0 0 1.611328,-0.72656 1.25,1.25 0 0 0 -0.726562,-1.61133 l -0.792969,-0.30078 z m 155.412108,0.84961 a 1.25,1.25 0 0 0 -1.74609,0.27344 1.25,1.25 0 0 0 0.27148,1.7461 c 0.6458,0.47186 1.2718,0.96985 1.875,1.49218 a 1.25,1.25 0 0 0 1.76367,-0.12695 1.25,1.25 0 0 0 -0.12695,-1.76367 c -0.65674,-0.56869 -1.33721,-1.1097 -2.03711,-1.6211 z m -46.375,0.95899 c -0.76973,0.31187 -1.53616,0.61922 -2.30273,0.91406 a 1.25,1.25 0 0 0 -0.71875,1.61524 1.25,1.25 0 0 0 1.61718,0.71875 c 0.78901,-0.30347 1.56883,-0.61767 2.34375,-0.93165 a 1.25,1.25 0 0 0 0.68946,-1.62695 1.25,1.25 0 0 0 -1.62891,-0.68945 z m -99.689451,1.65234 a 1.25,1.25 0 0 0 -1.59375,0.76563 1.25,1.25 0 0 0 0.765625,1.59375 c 0.795357,0.27904 1.591959,0.54734 2.388672,0.81054 a 1.25,1.25 0 0 0 1.580078,-0.79492 1.25,1.25 0 0 0 -0.794922,-1.57812 c -0.785816,-0.25961 -1.568375,-0.52416 -2.345703,-0.79688 z m -54.083985,0.64063 a 1.25,1.25 0 0 0 -0.884765,0.36523 c -0.614199,0.61334 -1.202693,1.25299 -1.763672,1.91602 a 1.25,1.25 0 0 0 0.146484,1.76172 1.25,1.25 0 0 0 1.761719,-0.14649 c 0.515474,-0.60924 1.056042,-1.19745 1.6210937,-1.76172 a 1.25,1.25 0 0 0 0.00195,-1.76758 1.25,1.25 0 0 0 -0.8828127,-0.36718 z m 144.472656,1.06836 c -0.78598,0.24272 -1.57549,0.47532 -2.36719,0.69726 a 1.25,1.25 0 0 0 -0.86523,1.54102 1.25,1.25 0 0 0 1.54101,0.86719 c 0.8131,-0.22795 1.62322,-0.46775 2.42969,-0.7168 a 1.25,1.25 0 0 0 0.82422,-1.5625 1.25,1.25 0 0 0 -1.5625,-0.82617 z m -80.927734,1.21875 a 1.25,1.25 0 0 0 -1.53125,0.88281 1.25,1.25 0 0 0 0.882813,1.5332 c 0.813674,0.21857 1.630612,0.42659 2.449218,0.62696 a 1.25,1.25 0 0 0 1.509766,-0.91602 1.25,1.25 0 0 0 -0.916016,-1.51172 c -0.800244,-0.19587 -1.598627,-0.40144 -2.394531,-0.61523 z m 71.357424,1.21875 c -0.80729,0.16594 -1.61587,0.32372 -2.42578,0.4707 a 1.25,1.25 0 0 0 -1.00586,1.45312 1.25,1.25 0 0 0 1.45312,1.00586 c 0.82996,-0.15061 1.6572,-0.31084 2.48242,-0.48046 a 1.25,1.25 0 0 0 0.97266,-1.47657 1.25,1.25 0 0 0 -1.47656,-0.97265 z m 70.76367,0.33398 a 1.25,1.25 0 0 0 -0.30078,1.74219 c 0.4598,0.65195 0.89197,1.32433 1.29687,2.01367 a 1.25,1.25 0 0 0 1.71094,0.44531 1.25,1.25 0 0 0 0.44531,-1.71093 c -0.43917,-0.74769 -0.9094,-1.47945 -1.41015,-2.18946 a 1.25,1.25 0 0 0 -1.74219,-0.30078 z m -132.464844,0.60938 a 1.25,1.25 0 0 0 -1.455078,1.00586 1.25,1.25 0 0 0 1.005859,1.45312 c 0.828623,0.15084 1.659487,0.29347 2.492188,0.42578 a 1.25,1.25 0 0 0 1.431641,-1.03906 1.25,1.25 0 0 0 -1.039063,-1.42969 c -0.813298,-0.12923 -1.624471,-0.26837 -2.435547,-0.41601 z m 51.927734,0.65625 c -0.81878,0.10482 -1.63797,0.20115 -2.45898,0.29101 a 1.25,1.25 0 0 0 -1.10743,1.37891 1.25,1.25 0 0 0 1.37891,1.10547 c 0.83573,-0.0915 1.67149,-0.19006 2.50586,-0.29688 a 1.25,1.25 0 0 0 1.08008,-1.39844 1.25,1.25 0 0 0 -1.39844,-1.08007 z m -42.123046,0.72656 a 1.25,1.25 0 0 0 -1.373047,1.11328 1.25,1.25 0 0 0 1.113281,1.37305 c 0.838261,0.0876 1.67515,0.16489 2.511719,0.23632 a 1.25,1.25 0 0 0 1.353515,-1.13867 1.25,1.25 0 0 0 -1.140625,-1.35156 c -0.82404,-0.0704 -1.64546,-0.14681 -2.464843,-0.23242 z m 32.244136,0.22851 c -0.82911,0.0572 -1.65512,0.11217 -2.47851,0.15821 a 1.25,1.25 0 0 0 -1.17774,1.31836 1.25,1.25 0 0 0 1.31641,1.17773 c 0.84067,-0.047 1.67815,-0.10261 2.51172,-0.16016 a 1.25,1.25 0 0 0 1.16211,-1.33203 1.25,1.25 0 0 0 -1.33399,-1.16211 z m -22.353511,0.45118 a 1.25,1.25 0 0 0 -1.294922,1.20312 1.25,1.25 0 0 0 1.203125,1.29492 c 0.838983,0.0314 1.678378,0.0572 2.519531,0.0742 a 1.25,1.25 0 0 0 1.275391,-1.22461 1.25,1.25 0 0 0 -1.22461,-1.27539 c -0.825132,-0.0167 -1.652044,-0.0414 -2.478515,-0.0723 z m 12.414062,0.0234 c -0.825079,0.0246 -1.654171,0.0408 -2.486328,0.0566 a 1.25,1.25 0 0 0 -1.224609,1.27344 1.25,1.25 0 0 0 1.273437,1.22656 c 0.834189,-0.0159 1.670869,-0.0336 2.511719,-0.0586 a 1.25,1.25 0 0 0 1.212891,-1.28516 1.25,1.25 0 0 0 -1.28711,-1.21289 z m -110.548828,1.69141 a 1.25,1.25 0 0 0 -1.671875,0.57617 c -0.38069,0.78118 -0.728435,1.57988 -1.041015,2.39063 a 1.25,1.25 0 0 0 0.716796,1.61523 1.25,1.25 0 0 0 1.617188,-0.7168 c 0.286973,-0.74432 0.60565,-1.47632 0.955078,-2.19336 a 1.25,1.25 0 0 0 -0.576172,-1.67187 z m 215.595707,4.40234 a 1.25,1.25 0 0 0 -0.84571,1.55274 c 0.22501,0.76478 0.41733,1.5409 0.57813,2.32422 a 1.25,1.25 0 0 0 1.47461,0.97265 1.25,1.25 0 0 0 0.97265,-1.47656 c -0.17433,-0.84924 -0.38155,-1.69129 -0.62695,-2.52539 a 1.25,1.25 0 0 0 -1.55273,-0.84766 z m -218.78516,5.03516 a 1.25,1.25 0 0 0 -1.386719,1.09766 c -0.09976,0.86118 -0.163956,1.72665 -0.191406,2.5957 a 1.25,1.25 0 0 0 1.208984,1.28906 1.25,1.25 0 0 0 1.289063,-1.20898 c 0.02517,-0.79673 0.08573,-1.59437 0.177734,-2.38867 a 1.25,1.25 0 0 0 -1.097656,-1.38477 z m 220.36719,3.50976 a 1.25,1.25 0 0 0 -1.25196,1.24805 c -4e-4,0.80147 -0.0299,1.60061 -0.0957,2.39453 a 1.25,1.25 0 0 0 1.14258,1.34961 1.25,1.25 0 0 0 1.34766,-1.14258 c 0.0718,-0.86704 0.10502,-1.73449 0.10546,-2.59961 a 1.25,1.25 0 0 0 -1.24804,-1.25 z m -220.294924,6.45313 a 1.25,1.25 0 0 0 -0.957032,1.48633 c 0.183318,0.84848 0.402201,1.68989 0.658204,2.52148 a 1.25,1.25 0 0 0 1.5625,0.82813 1.25,1.25 0 0 0 0.826171,-1.5625 c -0.23434,-0.76123 -0.434892,-1.53398 -0.603515,-2.31446 a 1.25,1.25 0 0 0 -1.486328,-0.95898 z m 219.078124,3.43555 a 1.25,1.25 0 0 0 -1.58594,0.78125 c -0.25658,0.75607 -0.54443,1.50227 -0.86328,2.23437 a 1.25,1.25 0 0 0 0.64649,1.64453 1.25,1.25 0 0 0 1.64453,-0.64648 c 0.34663,-0.79591 0.66044,-1.60557 0.93945,-2.42774 a 1.25,1.25 0 0 0 -0.78125,-1.58593 z M -15.517578,144.082 a 1.25,1.25 0 0 0 -0.416016,1.71875 c 0.452511,0.74061 0.937346,1.46137 1.451172,2.16211 a 1.25,1.25 0 0 0 1.746094,0.26953 1.25,1.25 0 0 0 0.269531,-1.74805 c -0.471686,-0.64327 -0.917565,-1.30674 -1.333984,-1.98828 a 1.25,1.25 0 0 0 -1.716797,-0.41406 z m 211.416018,3.00586 a 1.25,1.25 0 0 0 -1.75196,0.23047 c -0.48617,0.63272 -1.00107,1.24612 -1.53906,1.83789 a 1.25,1.25 0 0 0 0.084,1.76562 1.25,1.25 0 0 0 1.76562,-0.084 c 0.58311,-0.6414 1.14258,-1.30726 1.67188,-1.99609 a 1.25,1.25 0 0 0 -0.23047,-1.75391 z m -203.4492212,4.62695 a 1.25,1.25 0 0 0 -1.7597657,0.15821 1.25,1.25 0 0 0 0.1582031,1.76172 c 0.666632,0.5562 1.3573586,1.08316 2.0664063,1.58203 a 1.25,1.25 0 0 0 1.7402344,-0.30274 1.25,1.25 0 0 0 -0.3027344,-1.74219 c -0.6539747,-0.46012 -1.2892983,-0.94553 -1.9023437,-1.45703 z m 194.7187512,2.1211 c -0.66366,0.44313 -1.3462,0.85866 -2.04492,1.24414 a 1.25,1.25 0 0 0 -0.49219,1.69726 1.25,1.25 0 0 0 1.69922,0.49024 c 0.76049,-0.41955 1.50423,-0.87121 2.22656,-1.35352 a 1.25,1.25 0 0 0 0.34375,-1.73242 1.25,1.25 0 0 0 -1.73242,-0.3457 z M 0.6796875,156.57812 a 1.25,1.25 0 0 0 -1.62109375,0.70508 1.25,1.25 0 0 0 0.70507812,1.6211 c 0.8073299,0.31832 1.62604353,0.60202 2.45507813,0.85351 a 1.25,1.25 0 0 0 1.5585938,-0.83203 1.25,1.25 0 0 0 -0.8320313,-1.56055 c -0.7657644,-0.23229 -1.5225321,-0.49411 -2.265625,-0.78711 z m 177.7832025,1.16602 c -0.77048,0.20279 -1.5508,0.37278 -2.33789,0.50977 a 1.25,1.25 0 0 0 -1.01758,1.44531 1.25,1.25 0 0 0 1.44531,1.01758 c 0.85478,-0.14877 1.70566,-0.33329 2.54688,-0.55469 a 1.25,1.25 0 0 0 0.89062,-1.52734 1.25,1.25 0 0 0 -1.52734,-0.89063 z m -168.43164,0.89258 a 1.25,1.25 0 0 0 -1.3320312,1.16211 1.25,1.25 0 0 0 1.1640625,1.33203 c 0.8903317,0.0598 1.7313337,0.0566 2.5195317,0.0957 a 1.25,1.25 0 0 0 1.310546,-1.1875 1.25,1.25 0 0 0 -1.185546,-1.31054 c -0.876499,-0.0435 -1.703497,-0.0399 -2.476563,-0.0918 z m 158.80078,0.0762 c -0.84891,0.0222 -1.69656,0.06 -2.54297,0.11328 a 1.25,1.25 0 0 0 -1.16797,1.32617 1.25,1.25 0 0 0 1.32618,1.16993 c 0.81691,-0.0515 1.63402,-0.088 2.45117,-0.10938 a 1.25,1.25 0 0 0 1.21679,-1.2832 1.25,1.25 0 0 0 -1.2832,-1.2168 z m -148.757811,0.70703 a 1.25,1.25 0 0 0 -1.402344,1.07813 1.25,1.25 0 0 0 1.078125,1.40234 c 0.81646,0.1065 1.63346,0.22125 2.449219,0.3457 a 1.25,1.25 0 0 0 1.423828,-1.04687 1.25,1.25 0 0 0 -1.046875,-1.42383 c -0.83182,-0.1269 -1.665764,-0.2464 -2.501953,-0.35547 z m 138.654301,0.22461 c -0.83591,0.12538 -1.66957,0.26118 -2.5,0.4082 a 1.25,1.25 0 0 0 -1.01172,1.44922 1.25,1.25 0 0 0 1.44726,1.01367 c 0.81069,-0.14352 1.62324,-0.27855 2.43555,-0.40039 a 1.25,1.25 0 0 0 1.05078,-1.41992 1.25,1.25 0 0 0 -1.42187,-1.05078 z m -128.716801,1.44141 a 1.25,1.25 0 0 0 -1.466797,0.98828 1.25,1.25 0 0 0 0.990234,1.46484 c 0.810276,0.15731 1.6192,0.32361 2.429688,0.49414 a 1.25,1.25 0 0 0 1.480468,-0.96679 1.25,1.25 0 0 0 -0.964843,-1.48047 c -0.820457,-0.17264 -1.642909,-0.33967 -2.46875,-0.5 z m 118.806641,0.51367 c -0.82031,0.19381 -1.63526,0.39715 -2.44727,0.60351 a 1.25,1.25 0 0 0 -0.90429,1.51954 1.25,1.25 0 0 0 1.51953,0.90429 c 0.80328,-0.20415 1.6065,-0.40433 2.4082,-0.59375 a 1.25,1.25 0 0 0 0.92774,-1.5039 1.25,1.25 0 0 0 -1.50391,-0.92969 z M 39.828125,163.2168 a 1.25,1.25 0 0 0 -1.501953,0.93554 1.25,1.25 0 0 0 0.935547,1.5 c 0.808493,0.1879 1.615604,0.37951 2.421875,0.57422 a 1.25,1.25 0 0 0 1.507812,-0.92187 1.25,1.25 0 0 0 -0.921875,-1.50977 c -0.813821,-0.19653 -1.626499,-0.38874 -2.441406,-0.57812 z m 99.271485,0.96679 c -0.80709,0.23042 -1.61017,0.46601 -2.41016,0.70118 a 1.25,1.25 0 0 0 -0.8457,1.55078 1.25,1.25 0 0 0 1.55078,0.84765 c 0.79902,-0.23487 1.59508,-0.46819 2.39063,-0.69531 a 1.25,1.25 0 0 0 0.85937,-1.54492 1.25,1.25 0 0 0 -1.54492,-0.85938 z m -89.533204,1.41407 a 1.25,1.25 0 0 0 -1.519531,0.90429 1.25,1.25 0 0 0 0.904297,1.51953 l 2.421875,0.61524 a 1.25,1.25 0 0 0 1.519531,-0.9043 1.25,1.25 0 0 0 -0.904297,-1.51953 z m 79.929684,1.43554 -0.46289,0.13867 -1.92968,0.57618 a 1.25,1.25 0 0 0 -0.83985,1.55664 1.25,1.25 0 0 0 1.55469,0.83984 l 1.93164,-0.57617 a 1.250125,1.250125 0 0 0 0.002,-0.002 l 0.46289,-0.13868 a 1.25,1.25 0 0 0 0.83789,-1.55664 1.25,1.25 0 0 0 -1.55664,-0.83789 z m -70.240231,1.04883 a 1.25,1.25 0 0 0 -1.521484,0.89844 1.25,1.25 0 0 0 0.898437,1.52344 l 1.41211,0.36328 a 1.250125,1.250125 0 0 0 0.002,0 l 1.007812,0.25976 a 1.25,1.25 0 0 0 1.521485,-0.90039 1.25,1.25 0 0 0 -0.900391,-1.52148 l -1.007812,-0.25977 z m 60.664061,1.74219 c -0.79863,0.22225 -1.5959,0.44039 -2.39453,0.65039 A 1.25,1.25 0 0 0 116.63477,172 a 1.25,1.25 0 0 0 1.52539,0.89258 c 0.81324,-0.21385 1.62462,-0.43557 2.43164,-0.66016 a 1.25,1.25 0 0 0 0.86914,-1.53906 1.25,1.25 0 0 0 -1.54102,-0.86914 z m -50.984373,0.71484 a 1.25,1.25 0 0 0 -1.511719,0.91602 1.25,1.25 0 0 0 0.916016,1.51172 l 1.253906,0.30859 a 1.250125,1.250125 0 0 0 0.0039,0 l 1.173828,0.2832 a 1.25,1.25 0 0 0 1.509766,-0.91992 1.25,1.25 0 0 0 -0.919922,-1.50976 L 70.1875,170.8457 Z m 41.353513,1.69727 c -0.80613,0.17648 -1.61331,0.34438 -2.42187,0.5039 a 1.25,1.25 0 0 0 -0.98438,1.46875 1.25,1.25 0 0 0 1.46875,0.98438 c 0.82658,-0.16308 1.65071,-0.33568 2.47266,-0.51563 a 1.25,1.25 0 0 0 0.95312,-1.48828 1.25,1.25 0 0 0 -1.48828,-0.95312 z m -31.648435,0.54492 a 1.25,1.25 0 0 0 -1.482422,0.96289 1.25,1.25 0 0 0 0.960938,1.48242 c 0.827216,0.17608 1.65393,0.33883 2.474609,0.49805 a 1.25,1.25 0 0 0 1.464844,-0.99024 1.25,1.25 0 0 0 -0.990235,-1.46484 c -0.815436,-0.1582 -1.624802,-0.31737 -2.427734,-0.48828 z m 21.912105,1.15234 c -0.814901,0.1029 -1.630969,0.19539 -2.447261,0.27344 a 1.25,1.25 0 0 0 -1.125,1.36328 1.25,1.25 0 0 0 1.363281,1.125 c 0.842778,-0.0806 1.68289,-0.17536 2.52148,-0.28125 a 1.25,1.25 0 0 0 1.08399,-1.39648 1.25,1.25 0 0 0 -1.39649,-1.08399 z m -12.187496,0.45118 a 1.25,1.25 0 0 0 -1.367187,1.12109 1.25,1.25 0 0 0 1.121094,1.36523 c 0.850071,0.084 1.709686,0.14719 2.576171,0.17578 a 1.25,1.25 0 0 0 1.291016,-1.20703 1.25,1.25 0 0 0 -1.208984,-1.29101 c -0.799279,-0.0264 -1.603757,-0.0842 -2.41211,-0.16406 z"
         id="circle5" /></g><circle
       style="display:inline;mix-blend-mode:normal;fill:#9d84ec;fill-opacity:0.25;fill-rule:nonzero;stroke:#000000;stroke-width:2.5;stroke-linecap:round;stroke-linejoin:round;stroke-dasharray:2.5, 7.5;stroke-dashoffset:0;stroke-opacity:1"
       id="path1"
       cx="91.632362"
       cy="60.692215"
       r="30.452202" /><path
       d="m 99.781263,62.771228 c 0,1.4942 -1.010635,2.70692 -2.255835,2.70692 -1.2452,0 -2.25584,-1.21094 -2.25584,-2.70692 0,-1.49608 1.01064,-2.70707 2.25584,-2.70707 1.2452,0 2.255835,1.21277 2.255835,2.70707 z m -13.986155,-2.70707 c -1.2452,0 -2.25584,1.21277 -2.25584,2.70707 0,1.4942 1.01064,2.70692 2.25584,2.70692 1.2452,0 2.25584,-1.21272 2.25584,-2.70692 0,-1.4943 -1.01064,-2.70707 -2.25584,-2.70707 z m 5.86519,15.07618 c 4.03341,0 5.414,-4.24815 5.414,-4.24815 h -10.82799 c 0,0 1.52853,4.24815 5.41399,4.24815 z m 21.655992,-10.90199 c 0,3.18527 -1.77764,7.20243 -5.66487,8.85371 -4.23734,6.73324 -9.896812,10.43275 -15.991122,10.43275 -6.09437,0 -11.75385,-3.69951 -15.99297,-10.43275 -3.88546,-1.65128 -5.66302,-5.66844 -5.66302,-8.85371 0,-2.65648 0.69837,-5.30029 3.03545,-6.56172 -0.68072,-4.17063 -0.21143,-11.14565 7.56691,-13.70283 1.86065,-3.59134 5.63964,-7.37025 11.05363,-7.37025 5.414,0 9.192912,3.77891 11.053562,7.36842 7.77808,2.55901 8.24728,9.53225 7.56697,13.70466 2.33701,1.26143 3.03546,3.90524 3.03546,6.56172 z m -3.927,-2.25947 c -8.45846,-0.46582 -12.331292,-8.40971 -13.067592,-13.34368 -2.10599,11.42896 -16.242,3.23398 -17.85894,16.33584 -1.59893,-0.84279 -3.095,-2.36045 -3.99732,-3.89623 -1.79748,1.79923 -0.97455,7.49658 2.99753,8.84103 0.40449,0.13713 0.74531,0.41137 0.96548,0.77601 3.59313,5.94818 8.29245,9.2237 13.23185,9.2237 4.93934,0 9.636882,-3.27552 13.230002,-9.2237 0.22034,-0.36434 0.56271,-0.63913 0.96548,-0.77601 3.19609,-1.08094 4.54231,-4.99712 3.53351,-7.93696 z"
       id="path1-26"
       style="stroke-width:1.80467;fill:#000000;fill-opacity:1" /></g></svg>
