<?xml version="1.0" encoding="UTF-8" standalone="no"?>
<!-- Created with Inkscape (http://www.inkscape.org/) -->

<svg
   width="110mm"
   height="110mm"
   viewBox="0 0 110 110"
   version="1.1"
   id="svg1"
   inkscape:version="1.2.2 (b0a84865, 2022-12-01)"
   sodipodi:docname="circle-plain-adjusted.svg"
   xml:space="preserve"
   xmlns:inkscape="http://www.inkscape.org/namespaces/inkscape"
   xmlns:sodipodi="http://sodipodi.sourceforge.net/DTD/sodipodi-0.dtd"
   xmlns="http://www.w3.org/2000/svg"
   xmlns:svg="http://www.w3.org/2000/svg"><sodipodi:namedview
     id="namedview1"
     pagecolor="#ffffff"
     bordercolor="#000000"
     borderopacity="0.25"
     inkscape:showpageshadow="2"
     inkscape:pageopacity="0.0"
     inkscape:pagecheckerboard="0"
     inkscape:deskcolor="#d1d1d1"
     inkscape:document-units="mm"
     showguides="true"
     inkscape:zoom="1.4513534"
     inkscape:cx="255.96797"
     inkscape:cy="231.85255"
     inkscape:window-width="1920"
     inkscape:window-height="1027"
     inkscape:window-x="0"
     inkscape:window-y="25"
     inkscape:window-maximized="0"
     inkscape:current-layer="layer1"
     showgrid="false"><sodipodi:guide
       position="-0.06614871,55.000002"
       orientation="0,1"
       id="guide3532"
       inkscape:locked="false"
       inkscape:label=""
       inkscape:color="rgb(0,134,229)" /><sodipodi:guide
       position="55.000002,93.730507"
       orientation="-1,0"
       id="guide3534"
       inkscape:locked="false"
       inkscape:label=""
       inkscape:color="rgb(0,134,229)" /></sodipodi:namedview><defs
     id="defs1"><filter
       style="color-interpolation-filters:sRGB"
       inkscape:label="Greyscale"
       id="filter5"
       x="0"
       y="0"
       width="1"
       height="1"><feColorMatrix
         values="0 0 0 0 0 0 0 0 0 0 0 0 0 0 0 -0.239133 -0.72 -0.07 1 0 "
         id="feColorMatrix5" /></filter></defs><g
     inkscape:label="Layer 1"
     inkscape:groupmode="layer"
     id="layer1"
     transform="translate(40.277525,-69.621508)"><g
       id="g35"
       inkscape:label="phone1"
       transform="translate(-90.487897,17.319913)"
       inkscape:transform-center-x="-0.1644014"
       inkscape:transform-center-y="29.518783"><g
         id="g34"
         transform="translate(-61.38098,3.290092)"
         inkscape:label="phone"><g
           id="g33"
           transform="matrix(0.08935893,0,0,0.08935893,149.34083,133.69392)"><path
             id="path33"
             style="fill:#000000;fill-opacity:1;stroke:none;stroke-width:1.5;stroke-linecap:round;stroke-linejoin:round"
             d="m 118.88186,-69.919747 c -7.72052,0 -13.9361,6.215065 -13.9361,13.935588 V 257.12737 c 0,7.72052 6.21558,13.9361 13.9361,13.9361 h 147.83646 c 7.72052,0 13.9361,-6.21558 13.9361,-13.9361 V -55.984159 c 0,-7.720523 -6.21558,-13.935588 -13.9361,-13.935588 h -54.2463 -5.27048 c -4.70002,0 -5.56192,2.4829 -6.12625,5.492176 -0.75428,4.022179 -2.67602,7.208555 -8.27546,7.224365 -5.41808,0.0153 -7.66179,-3.363817 -8.59896,-7.905461 -0.44903,-2.17607 -0.63415,-4.81108 -5.95726,-4.81108 h -6.93187 z"
             sodipodi:nodetypes="sssssssscssssscs" /><rect
             style="fill:none;fill-opacity:0.593104;stroke:#000000;stroke-width:5.0023;stroke-linecap:round;stroke-linejoin:round;stroke-dasharray:none;stroke-opacity:1"
             id="rect33"
             width="194.23988"
             height="360.44257"
             x="95.927605"
             y="-79.619118"
             ry="23.045225" /></g></g><path
         d="m 104.54169,136.6779 -3.29868,3.29868 q -0.20196,0.20195 -0.47124,0.19354 -0.26928,-0.008 -0.47124,-0.21037 -0.18513,-0.20196 -0.19355,-0.47125 -0.008,-0.26927 0.19355,-0.47123 l 4.44313,-4.44312 q 0.10097,-0.10098 0.21878,-0.14306 0.11781,-0.0421 0.25245,-0.0421 0.13464,0 0.25245,0.0421 0.11781,0.0421 0.2188,0.14306 l 4.44311,4.44312 q 0.18513,0.18513 0.18513,0.46282 0,0.2777 -0.18513,0.47966 -0.20196,0.20196 -0.47965,0.20196 -0.2777,0 -0.47966,-0.20196 l -3.28184,-3.28185 v 7.52301 q 0,0.28611 -0.19355,0.47965 -0.19354,0.19355 -0.47966,0.19355 -0.2861,0 -0.47965,-0.19355 -0.19355,-0.19354 -0.19355,-0.47965 z"
         id="path156"
         style="fill:#fcfcfc;fill-opacity:1;stroke-width:0.01683"
         inkscape:label="Arrow" /></g><g
       id="g52"
       inkscape:label="soundwaves"
       transform="translate(-300.10295,104.1634)"
       style="display:none"
       sodipodi:insensitive="true"><path
         style="fill:none;fill-opacity:1;stroke:#000000;stroke-width:0.770001;stroke-linecap:round;stroke-linejoin:round;stroke-dasharray:none;stroke-opacity:1"
         id="path50"
         sodipodi:type="arc"
         sodipodi:cx="-314.728"
         sodipodi:cy="-41.412521"
         sodipodi:rx="3.1350718"
         sodipodi:ry="3.1350718"
         sodipodi:start="0"
         sodipodi:end="3.1415927"
         sodipodi:open="true"
         sodipodi:arc-type="arc"
         d="m -311.59293,-41.412521 a 3.1350718,3.1350718 0 0 1 -1.56753,2.715051 3.1350718,3.1350718 0 0 1 -3.13507,0 3.1350718,3.1350718 0 0 1 -1.56754,-2.715051"
         transform="scale(-1)" /><path
         style="fill:none;fill-opacity:1;stroke:#000000;stroke-width:0.770001;stroke-linecap:round;stroke-linejoin:round;stroke-dasharray:none;stroke-opacity:1"
         id="path51"
         sodipodi:type="arc"
         sodipodi:cx="-314.728"
         sodipodi:cy="-41.412521"
         sodipodi:rx="1.1886998"
         sodipodi:ry="1.1886998"
         sodipodi:start="0"
         sodipodi:end="3.1415927"
         sodipodi:open="true"
         sodipodi:arc-type="arc"
         d="m -313.5393,-41.412521 a 1.1886998,1.1886998 0 0 1 -0.59435,1.029444 1.1886998,1.1886998 0 0 1 -1.1887,0 1.1886998,1.1886998 0 0 1 -0.59435,-1.029444"
         transform="scale(-1)" /><path
         style="fill:none;fill-opacity:1;stroke:#000000;stroke-width:0.770001;stroke-linecap:round;stroke-linejoin:round;stroke-dasharray:none;stroke-opacity:1"
         id="path52"
         sodipodi:type="arc"
         sodipodi:cx="-314.728"
         sodipodi:cy="-41.412521"
         sodipodi:rx="5.0687399"
         sodipodi:ry="5"
         sodipodi:start="0"
         sodipodi:end="3.1415927"
         sodipodi:open="true"
         sodipodi:arc-type="arc"
         d="m -309.65926,-41.412521 a 5.0687399,5 0 0 1 -2.53437,4.330127 5.0687399,5 0 0 1 -5.06874,0 5.0687399,5 0 0 1 -2.53437,-4.330127"
         transform="scale(-1)" /></g><g
       id="g3570"
       inkscape:label="phone1"
       transform="rotate(60,44.967068,37.596268)"
       inkscape:transform-center-x="33.491505"
       inkscape:transform-center-y="19.336181"><g
         id="g3566"
         transform="translate(-61.38098,3.290092)"
         inkscape:label="phone"><g
           id="g3564"
           transform="matrix(0.08935893,0,0,0.08935893,149.34083,133.69392)"><path
             id="path3560"
             style="fill:#000000;fill-opacity:1;stroke:none;stroke-width:1.5;stroke-linecap:round;stroke-linejoin:round"
             d="m 118.88186,-69.919747 c -7.72052,0 -13.9361,6.215065 -13.9361,13.935588 V 257.12737 c 0,7.72052 6.21558,13.9361 13.9361,13.9361 h 147.83646 c 7.72052,0 13.9361,-6.21558 13.9361,-13.9361 V -55.984159 c 0,-7.720523 -6.21558,-13.935588 -13.9361,-13.935588 h -54.2463 -5.27048 c -4.70002,0 -5.56192,2.4829 -6.12625,5.492176 -0.75428,4.022179 -2.67602,7.208555 -8.27546,7.224365 -5.41808,0.0153 -7.66179,-3.363817 -8.59896,-7.905461 -0.44903,-2.17607 -0.63415,-4.81108 -5.95726,-4.81108 h -6.93187 z"
             sodipodi:nodetypes="sssssssscssssscs" /><rect
             style="fill:none;fill-opacity:0.593104;stroke:#000000;stroke-width:5.0023;stroke-linecap:round;stroke-linejoin:round;stroke-dasharray:none;stroke-opacity:1"
             id="rect3562"
             width="194.23988"
             height="360.44257"
             x="95.927605"
             y="-79.619118"
             ry="23.045225" /></g></g><path
         d="m 104.54169,136.6779 -3.29868,3.29868 q -0.20196,0.20195 -0.47124,0.19354 -0.26928,-0.008 -0.47124,-0.21037 -0.18513,-0.20196 -0.19355,-0.47125 -0.008,-0.26927 0.19355,-0.47123 l 4.44313,-4.44312 q 0.10097,-0.10098 0.21878,-0.14306 0.11781,-0.0421 0.25245,-0.0421 0.13464,0 0.25245,0.0421 0.11781,0.0421 0.2188,0.14306 l 4.44311,4.44312 q 0.18513,0.18513 0.18513,0.46282 0,0.2777 -0.18513,0.47966 -0.20196,0.20196 -0.47965,0.20196 -0.2777,0 -0.47966,-0.20196 l -3.28184,-3.28185 v 7.52301 q 0,0.28611 -0.19355,0.47965 -0.19354,0.19355 -0.47966,0.19355 -0.2861,0 -0.47965,-0.19355 -0.19355,-0.19354 -0.19355,-0.47965 z"
         id="path3568"
         style="fill:#fcfcfc;fill-opacity:1;stroke-width:0.01683"
         inkscape:label="Arrow" /></g><g
       id="g3582"
       inkscape:label="phone1"
       transform="rotate(120,54.966724,89.83948)"
       inkscape:transform-center-x="33.491376"
       inkscape:transform-center-y="-19.336403"><g
         id="g3578"
         transform="translate(-61.38098,3.290092)"
         inkscape:label="phone"><g
           id="g3576"
           transform="matrix(0.08935893,0,0,0.08935893,149.34083,133.69392)"><path
             id="path3572"
             style="fill:#000000;fill-opacity:1;stroke:none;stroke-width:1.5;stroke-linecap:round;stroke-linejoin:round"
             d="m 118.88186,-69.919747 c -7.72052,0 -13.9361,6.215065 -13.9361,13.935588 V 257.12737 c 0,7.72052 6.21558,13.9361 13.9361,13.9361 h 147.83646 c 7.72052,0 13.9361,-6.21558 13.9361,-13.9361 V -55.984159 c 0,-7.720523 -6.21558,-13.935588 -13.9361,-13.935588 h -54.2463 -5.27048 c -4.70002,0 -5.56192,2.4829 -6.12625,5.492176 -0.75428,4.022179 -2.67602,7.208555 -8.27546,7.224365 -5.41808,0.0153 -7.66179,-3.363817 -8.59896,-7.905461 -0.44903,-2.17607 -0.63415,-4.81108 -5.95726,-4.81108 h -6.93187 z"
             sodipodi:nodetypes="sssssssscssssscs" /><rect
             style="fill:none;fill-opacity:0.593104;stroke:#000000;stroke-width:5.0023;stroke-linecap:round;stroke-linejoin:round;stroke-dasharray:none;stroke-opacity:1"
             id="rect3574"
             width="194.23988"
             height="360.44257"
             x="95.927605"
             y="-79.619118"
             ry="23.045225" /></g></g><path
         d="m 104.54169,136.6779 -3.29868,3.29868 q -0.20196,0.20195 -0.47124,0.19354 -0.26928,-0.008 -0.47124,-0.21037 -0.18513,-0.20196 -0.19355,-0.47125 -0.008,-0.26927 0.19355,-0.47123 l 4.44313,-4.44312 q 0.10097,-0.10098 0.21878,-0.14306 0.11781,-0.0421 0.25245,-0.0421 0.13464,0 0.25245,0.0421 0.11781,0.0421 0.2188,0.14306 l 4.44311,4.44312 q 0.18513,0.18513 0.18513,0.46282 0,0.2777 -0.18513,0.47966 -0.20196,0.20196 -0.47965,0.20196 -0.2777,0 -0.47966,-0.20196 l -3.28184,-3.28185 v 7.52301 q 0,0.28611 -0.19355,0.47965 -0.19354,0.19355 -0.47966,0.19355 -0.2861,0 -0.47965,-0.19355 -0.19355,-0.19354 -0.19355,-0.47965 z"
         id="path3580"
         style="fill:#fcfcfc;fill-opacity:1;stroke-width:0.01683"
         inkscape:label="Arrow" /></g><g
       id="g3594"
       inkscape:label="phone1"
       transform="rotate(180,59.966552,115.96109)"
       inkscape:transform-center-x="-0.00012843524"
       inkscape:transform-center-y="-38.672576"><g
         id="g3590"
         transform="translate(-61.38098,3.290092)"
         inkscape:label="phone"><g
           id="g3588"
           transform="matrix(0.08935893,0,0,0.08935893,149.34083,133.69392)"><path
             id="path3584"
             style="fill:#000000;fill-opacity:1;stroke:none;stroke-width:1.5;stroke-linecap:round;stroke-linejoin:round"
             d="m 118.88186,-69.919747 c -7.72052,0 -13.9361,6.215065 -13.9361,13.935588 V 257.12737 c 0,7.72052 6.21558,13.9361 13.9361,13.9361 h 147.83646 c 7.72052,0 13.9361,-6.21558 13.9361,-13.9361 V -55.984159 c 0,-7.720523 -6.21558,-13.935588 -13.9361,-13.935588 h -54.2463 -5.27048 c -4.70002,0 -5.56192,2.4829 -6.12625,5.492176 -0.75428,4.022179 -2.67602,7.208555 -8.27546,7.224365 -5.41808,0.0153 -7.66179,-3.363817 -8.59896,-7.905461 -0.44903,-2.17607 -0.63415,-4.81108 -5.95726,-4.81108 h -6.93187 z"
             sodipodi:nodetypes="sssssssscssssscs" /><rect
             style="fill:none;fill-opacity:0.593104;stroke:#000000;stroke-width:5.0023;stroke-linecap:round;stroke-linejoin:round;stroke-dasharray:none;stroke-opacity:1"
             id="rect3586"
             width="194.23988"
             height="360.44257"
             x="95.927605"
             y="-79.619118"
             ry="23.045225" /></g></g><path
         d="m 104.54169,136.6779 -3.29868,3.29868 q -0.20196,0.20195 -0.47124,0.19354 -0.26928,-0.008 -0.47124,-0.21037 -0.18513,-0.20196 -0.19355,-0.47125 -0.008,-0.26927 0.19355,-0.47123 l 4.44313,-4.44312 q 0.10097,-0.10098 0.21878,-0.14306 0.11781,-0.0421 0.25245,-0.0421 0.13464,0 0.25245,0.0421 0.11781,0.0421 0.2188,0.14306 l 4.44311,4.44312 q 0.18513,0.18513 0.18513,0.46282 0,0.2777 -0.18513,0.47966 -0.20196,0.20196 -0.47965,0.20196 -0.2777,0 -0.47966,-0.20196 l -3.28184,-3.28185 v 7.52301 q 0,0.28611 -0.19355,0.47965 -0.19354,0.19355 -0.47966,0.19355 -0.2861,0 -0.47965,-0.19355 -0.19355,-0.19354 -0.19355,-0.47965 z"
         id="path3592"
         style="fill:#fcfcfc;fill-opacity:1;stroke-width:0.01683"
         inkscape:label="Arrow" /></g><g
       id="g3606"
       inkscape:label="phone1"
       transform="rotate(-120,64.966378,142.0827)"
       inkscape:transform-center-x="-33.491494"
       inkscape:transform-center-y="-19.33617"><g
         id="g3602"
         transform="translate(-61.38098,3.290092)"
         inkscape:label="phone"><g
           id="g3600"
           transform="matrix(0.08935893,0,0,0.08935893,149.34083,133.69392)"><path
             id="path3596"
             style="fill:#000000;fill-opacity:1;stroke:none;stroke-width:1.5;stroke-linecap:round;stroke-linejoin:round"
             d="m 118.88186,-69.919747 c -7.72052,0 -13.9361,6.215065 -13.9361,13.935588 V 257.12737 c 0,7.72052 6.21558,13.9361 13.9361,13.9361 h 147.83646 c 7.72052,0 13.9361,-6.21558 13.9361,-13.9361 V -55.984159 c 0,-7.720523 -6.21558,-13.935588 -13.9361,-13.935588 h -54.2463 -5.27048 c -4.70002,0 -5.56192,2.4829 -6.12625,5.492176 -0.75428,4.022179 -2.67602,7.208555 -8.27546,7.224365 -5.41808,0.0153 -7.66179,-3.363817 -8.59896,-7.905461 -0.44903,-2.17607 -0.63415,-4.81108 -5.95726,-4.81108 h -6.93187 z"
             sodipodi:nodetypes="sssssssscssssscs" /><rect
             style="fill:none;fill-opacity:0.593104;stroke:#000000;stroke-width:5.0023;stroke-linecap:round;stroke-linejoin:round;stroke-dasharray:none;stroke-opacity:1"
             id="rect3598"
             width="194.23988"
             height="360.44257"
             x="95.927605"
             y="-79.619118"
             ry="23.045225" /></g></g><path
         d="m 104.54169,136.6779 -3.29868,3.29868 q -0.20196,0.20195 -0.47124,0.19354 -0.26928,-0.008 -0.47124,-0.21037 -0.18513,-0.20196 -0.19355,-0.47125 -0.008,-0.26927 0.19355,-0.47123 l 4.44313,-4.44312 q 0.10097,-0.10098 0.21878,-0.14306 0.11781,-0.0421 0.25245,-0.0421 0.13464,0 0.25245,0.0421 0.11781,0.0421 0.2188,0.14306 l 4.44311,4.44312 q 0.18513,0.18513 0.18513,0.46282 0,0.2777 -0.18513,0.47966 -0.20196,0.20196 -0.47965,0.20196 -0.2777,0 -0.47966,-0.20196 l -3.28184,-3.28185 v 7.52301 q 0,0.28611 -0.19355,0.47965 -0.19354,0.19355 -0.47966,0.19355 -0.2861,0 -0.47965,-0.19355 -0.19355,-0.19354 -0.19355,-0.47965 z"
         id="path3604"
         style="fill:#fcfcfc;fill-opacity:1;stroke-width:0.01683"
         inkscape:label="Arrow" /></g><g
       id="g3618"
       inkscape:label="phone1"
       transform="rotate(-60,74.966026,194.32591)"
       inkscape:transform-center-x="-33.491365"
       inkscape:transform-center-y="19.336398"><g
         id="g3614"
         transform="translate(-61.38098,3.290092)"
         inkscape:label="phone"><g
           id="g3612"
           transform="matrix(0.08935893,0,0,0.08935893,149.34083,133.69392)"><path
             id="path3608"
             style="fill:#000000;fill-opacity:1;stroke:none;stroke-width:1.5;stroke-linecap:round;stroke-linejoin:round"
             d="m 118.88186,-69.919747 c -7.72052,0 -13.9361,6.215065 -13.9361,13.935588 V 257.12737 c 0,7.72052 6.21558,13.9361 13.9361,13.9361 h 147.83646 c 7.72052,0 13.9361,-6.21558 13.9361,-13.9361 V -55.984159 c 0,-7.720523 -6.21558,-13.935588 -13.9361,-13.935588 h -54.2463 -5.27048 c -4.70002,0 -5.56192,2.4829 -6.12625,5.492176 -0.75428,4.022179 -2.67602,7.208555 -8.27546,7.224365 -5.41808,0.0153 -7.66179,-3.363817 -8.59896,-7.905461 -0.44903,-2.17607 -0.63415,-4.81108 -5.95726,-4.81108 h -6.93187 z"
             sodipodi:nodetypes="sssssssscssssscs" /><rect
             style="fill:none;fill-opacity:0.593104;stroke:#000000;stroke-width:5.0023;stroke-linecap:round;stroke-linejoin:round;stroke-dasharray:none;stroke-opacity:1"
             id="rect3610"
             width="194.23988"
             height="360.44257"
             x="95.927605"
             y="-79.619118"
             ry="23.045225" /></g></g><path
         d="m 104.54169,136.6779 -3.29868,3.29868 q -0.20196,0.20195 -0.47124,0.19354 -0.26928,-0.008 -0.47124,-0.21037 -0.18513,-0.20196 -0.19355,-0.47125 -0.008,-0.26927 0.19355,-0.47123 l 4.44313,-4.44312 q 0.10097,-0.10098 0.21878,-0.14306 0.11781,-0.0421 0.25245,-0.0421 0.13464,0 0.25245,0.0421 0.11781,0.0421 0.2188,0.14306 l 4.44311,4.44312 q 0.18513,0.18513 0.18513,0.46282 0,0.2777 -0.18513,0.47966 -0.20196,0.20196 -0.47965,0.20196 -0.2777,0 -0.47966,-0.20196 l -3.28184,-3.28185 v 7.52301 q 0,0.28611 -0.19355,0.47965 -0.19354,0.19355 -0.47966,0.19355 -0.2861,0 -0.47965,-0.19355 -0.19355,-0.19354 -0.19355,-0.47965 z"
         id="path3616"
         style="fill:#fcfcfc;fill-opacity:1;stroke-width:0.01683"
         inkscape:label="Arrow" /></g><g
       id="g3914"
       transform="matrix(1.4399298,0,0,1.4399298,-3.9944198,-54.824709)"><rect
         style="fill:#000000;fill-opacity:1;stroke:none;stroke-width:0.125399"
         id="rect3722"
         width="0.79803199"
         height="5.2589593"
         x="4.6619625"
         y="121.99202"
         ry="0.39899999"
         rx="1" /><rect
         style="fill:#000000;fill-opacity:1;stroke:none;stroke-width:0.160334"
         id="rect3828"
         width="0.79803199"
         height="8.5973873"
         x="6.2494621"
         y="120.32281"
         ry="0.39899999"
         rx="1" /><rect
         style="fill:#000000;fill-opacity:1;stroke:none;stroke-width:0.195082"
         id="rect3830"
         width="0.79803199"
         height="12.72768"
         x="7.8369622"
         y="118.25766"
         ry="0.39899999"
         rx="1" /><rect
         style="fill:#000000;fill-opacity:1;stroke:none;stroke-width:0.160334"
         id="rect3832"
         width="0.79803199"
         height="8.5973854"
         x="9.4244623"
         y="120.32281"
         ry="0.39899999"
         rx="1" /><rect
         style="fill:#000000;fill-opacity:1;stroke:none;stroke-width:0.125399"
         id="rect3834"
         width="0.79803199"
         height="5.2589607"
         x="11.011962"
         y="121.99202"
         ry="0.39899999"
         rx="1" /><rect
         style="fill:#000000;fill-opacity:1;stroke:none;stroke-width:0.160334"
         id="rect3836"
         width="0.79803199"
         height="8.5973854"
         x="12.599462"
         y="120.32281"
         ry="0.39899999"
         rx="1" /><rect
         style="fill:#000000;fill-opacity:1;stroke:none;stroke-width:0.195082"
         id="rect3838"
         width="0.79803199"
         height="12.72768"
         x="14.186961"
         y="118.25766"
         ry="0.39899999"
         rx="0.39901599" /><rect
         style="fill:#000000;fill-opacity:1;stroke:none;stroke-width:0.160334"
         id="rect3840"
         width="0.79803199"
         height="8.5973854"
         x="15.774461"
         y="120.32281"
         ry="0.39899999"
         rx="1" /><rect
         style="fill:#000000;fill-opacity:1;stroke:none;stroke-width:0.195082"
         id="rect3842"
         width="0.79803199"
         height="12.72768"
         x="17.361961"
         y="118.25766"
         ry="0.39899999"
         rx="1" /><rect
         style="fill:#000000;fill-opacity:1;stroke:none;stroke-width:0.160334"
         id="rect3844"
         width="0.79803199"
         height="8.5973854"
         x="18.949461"
         y="120.32281"
         ry="0.39899999"
         rx="1" /><rect
         style="fill:#000000;fill-opacity:1;stroke:none;stroke-width:0.125399"
         id="rect3846"
         width="0.79803199"
         height="5.2589607"
         x="20.536961"
         y="121.99202"
         ry="0.39899999"
         rx="1" /></g></g></svg>
