<?xml version="1.0" encoding="UTF-8" standalone="no"?>
<!-- Created with Inkscape (http://www.inkscape.org/) -->

<svg
   width="700mm"
   height="700mm"
   viewBox="0 0 700 700.00002"
   version="1.1"
   id="svg10259"
   inkscape:version="1.2.2 (b0a84865, 2022-12-01)"
   sodipodi:docname="logo-icon.svg"
   inkscape:export-filename="../../../../../dev/seemoo/pairsonic/doc/img/icon.png"
   inkscape:export-xdpi="18.578287"
   inkscape:export-ydpi="18.578287"
   xml:space="preserve"
   xmlns:inkscape="http://www.inkscape.org/namespaces/inkscape"
   xmlns:sodipodi="http://sodipodi.sourceforge.net/DTD/sodipodi-0.dtd"
   xmlns:xlink="http://www.w3.org/1999/xlink"
   xmlns="http://www.w3.org/2000/svg"
   xmlns:svg="http://www.w3.org/2000/svg"><sodipodi:namedview
     id="namedview10261"
     pagecolor="#ffffff"
     bordercolor="#000000"
     borderopacity="0.25"
     inkscape:showpageshadow="2"
     inkscape:pageopacity="0.0"
     inkscape:pagecheckerboard="0"
     inkscape:deskcolor="#d1d1d1"
     inkscape:document-units="mm"
     showgrid="false"
     inkscape:zoom="0.10064215"
     inkscape:cx="84.457652"
     inkscape:cy="2369.7824"
     inkscape:window-width="1920"
     inkscape:window-height="1027"
     inkscape:window-x="1920"
     inkscape:window-y="25"
     inkscape:window-maximized="0"
     inkscape:current-layer="layer1" /><defs
     id="defs10256"><linearGradient
       inkscape:collect="always"
       id="linearGradient2060"><stop
         style="stop-color:#7b73ef;stop-opacity:1;"
         offset="0"
         id="stop2056" /><stop
         style="stop-color:#4f42c2;stop-opacity:1;"
         offset="1"
         id="stop2058" /></linearGradient><rect
       x="869.22101"
       y="306.45905"
       width="1973.4026"
       height="736.95782"
       id="rect14324-79-3-1-4" /><linearGradient
       inkscape:collect="always"
       xlink:href="#linearGradient2060"
       id="linearGradient2062"
       x1="45.323059"
       y1="226.29956"
       x2="55.489403"
       y2="-946.91168"
       gradientUnits="userSpaceOnUse" /></defs><g
     inkscape:label="Layer 1"
     inkscape:groupmode="layer"
     id="layer1"
     transform="translate(304.67694,473.70044)"><rect
       style="display:inline;fill:url(#linearGradient2062);fill-opacity:1;stroke:none;stroke-width:43.2552;stroke-linecap:round;stroke-linejoin:round;stroke-dasharray:none;stroke-opacity:1"
       id="rect15-8-0-7"
       width="700"
       height="700"
       x="-304.67694"
       y="-473.70044"
       ry="136.08562"
       inkscape:label="background" /><g
       id="layer2-6-8-0"
       inkscape:label="logo"
       transform="matrix(3.461898,0,0,3.461898,-249.72985,-418.70422)"><g
         id="g346-9-2-4"
         transform="matrix(2.8229647,0,0,2.8229647,-404.44914,-531.74093)"
         style="display:inline;opacity:1;fill:#a598e3;fill-opacity:1;stroke:#3a316d;stroke-opacity:1"
         inkscape:label="back-circle"><rect
           style="fill:#a598e3;fill-opacity:1;stroke:#3a316d;stroke-width:1.35;stroke-linejoin:round;stroke-dasharray:none;stroke-opacity:1"
           id="rect342-0-0-0"
           width="23.036411"
           height="14.841301"
           x="177.79277"
           y="211.12651"
           ry="2.1936679"
           inkscape:transform-center-x="-15.84858"
           inkscape:transform-center-y="-0.0030332709" /><rect
           style="fill:#a598e3;fill-opacity:1;stroke:#3a316d;stroke-width:1.35;stroke-linejoin:round;stroke-dasharray:none;stroke-opacity:1"
           id="rect343-1-6-6"
           width="23.036411"
           height="14.841301"
           x="-149.92038"
           y="225.08458"
           ry="2.1936679"
           inkscape:transform-center-x="-4.8945942"
           inkscape:transform-center-y="-15.073838"
           transform="rotate(-72)" /><rect
           style="fill:#a598e3;fill-opacity:1;stroke:#3a316d;stroke-width:1.35;stroke-linejoin:round;stroke-dasharray:none;stroke-opacity:1"
           id="rect344-6-0-5"
           width="23.036411"
           height="14.841301"
           x="-264.46423"
           y="-82.275871"
           ry="2.1936679"
           inkscape:transform-center-x="12.823556"
           inkscape:transform-center-y="-9.3131043"
           transform="rotate(-144)" /><rect
           style="fill:#a598e3;fill-opacity:1;stroke:#3a316d;stroke-width:1.35;stroke-linejoin:round;stroke-dasharray:none;stroke-opacity:1"
           id="rect345-4-7-3"
           width="23.036411"
           height="14.841301"
           x="-7.5430708"
           y="-286.19315"
           ry="2.1936679"
           inkscape:transform-center-x="12.819986"
           inkscape:transform-center-y="9.3180171"
           transform="rotate(144)" /><rect
           style="display:inline;fill:#a598e3;fill-opacity:1;stroke:#3a316d;stroke-width:1.35;stroke-linejoin:round;stroke-dasharray:none;stroke-opacity:1"
           id="rect346-4-2-8"
           width="23.036411"
           height="14.841301"
           x="265.7868"
           y="-104.8605"
           ry="2.1936679"
           inkscape:transform-center-x="-4.9003654"
           inkscape:transform-center-y="15.071973"
           transform="rotate(72)"
           inkscape:label="rect346" /></g><g
         id="g266-8-9-5"
         transform="matrix(0.87234404,-2.684799,2.684799,0.87234404,-61.773251,183.02031)"
         inkscape:transform-center-x="4.897647"
         inkscape:transform-center-y="15.072025"
         style="display:inline"
         inkscape:label="c5"><g
           id="g265-6-8-1"
           transform="translate(-63.500003,-42.333335)"><g
             id="g264-1-1-2"
             transform="translate(0,-42.333335)"><rect
               style="fill:#fefaee;fill-opacity:1;stroke:#011638;stroke-width:1.35;stroke-linejoin:round;stroke-dasharray:none;stroke-opacity:1"
               id="rect259-4-1-4"
               width="23.036411"
               height="14.841301"
               x="85.177193"
               y="116.06292"
               ry="2.1936679" /><g
               id="g263-0-6-6"
               transform="translate(1.2169867,10.583334)"
               style="stroke-width:0.1;stroke-dasharray:none"><g
                 id="g262-8-1-7"
                 transform="translate(0.52916667,-1.0583333)"
                 style="fill:#011638;fill-opacity:1;stroke:#011638;stroke-opacity:1"><rect
                   style="fill:#011638;fill-opacity:1;stroke:#011638;stroke-width:0.65;stroke-linejoin:round;stroke-dasharray:none;stroke-opacity:1"
                   id="rect260-1-1-5"
                   width="4.859839"
                   height="0.69142914"
                   x="97.610817"
                   y="114.62518"
                   ry="0.34571323" /><rect
                   style="fill:#011638;fill-opacity:1;stroke:#011638;stroke-width:0.3;stroke-linejoin:round;stroke-dasharray:none;stroke-opacity:1"
                   id="rect261-0-8-5"
                   width="7.0757947"
                   height="0.69142914"
                   x="97.435814"
                   y="116.6641"
                   ry="0.34571323" /><rect
                   style="fill:#011638;fill-opacity:1;stroke:#011638;stroke-width:0.3;stroke-linejoin:round;stroke-dasharray:none;stroke-opacity:1"
                   id="rect262-3-1-0"
                   width="7.1257949"
                   height="0.60335201"
                   x="97.435814"
                   y="118.52802"
                   ry="0.29299217" /></g></g></g></g><path
           d="m 30.849614,39.509721 c 0,0.382413 -0.258656,0.692788 -0.577343,0.692788 -0.318687,0 -0.577343,-0.309919 -0.577343,-0.692788 0,-0.382895 0.258656,-0.692827 0.577343,-0.692827 0.318687,0 0.577343,0.310388 0.577343,0.692827 z m -3.57951,-0.692827 c -0.318687,0 -0.577342,0.310388 -0.577342,0.692827 0,0.382413 0.258655,0.692788 0.577342,0.692788 0.318687,0 0.577343,-0.310375 0.577343,-0.692788 0,-0.382439 -0.258656,-0.692827 -0.577343,-0.692827 z m 1.501092,3.858482 c 1.03228,0 1.385617,-1.087238 1.385617,-1.087238 h -2.771234 c 0,0 0.391202,1.087238 1.385617,1.087238 z m 5.542467,-2.790172 c 0,0.815213 -0.454953,1.843336 -1.449821,2.265949 -1.084474,1.723255 -2.532918,2.67008 -4.092646,2.67008 -1.559747,0 -3.008191,-0.946825 -4.093117,-2.67008 -0.994415,-0.422613 -1.44935,-1.450736 -1.44935,-2.265949 0,-0.67988 0.178737,-1.356514 0.77687,-1.679356 -0.174218,-1.067398 -0.05412,-2.852531 1.936617,-3.506996 0.476198,-0.919139 1.443363,-1.886285 2.82898,-1.886285 1.385617,0 2.352764,0.967146 2.828964,1.885817 1.990662,0.654933 2.110745,2.43961 1.936633,3.507464 0.598116,0.322842 0.77687,0.999476 0.77687,1.679356 z M 33.30862,39.306933 c -2.164794,-0.119218 -3.155979,-2.152317 -3.344423,-3.415077 -0.538989,2.925038 -4.156851,0.82768 -4.570676,4.180867 -0.409219,-0.215695 -0.792111,-0.604115 -1.023045,-0.997171 -0.460033,0.460483 -0.249421,1.918619 0.767165,2.262707 0.103524,0.03509 0.190749,0.10528 0.247097,0.198605 0.919598,1.522333 2.122304,2.360642 3.386458,2.360642 1.264135,0 2.466391,-0.838309 3.385986,-2.360642 0.05639,-0.09325 0.144017,-0.163573 0.247097,-0.198605 0.817983,-0.276649 1.162524,-1.278927 0.904341,-2.031326 z"
           id="path265-1-1-5"
           style="fill:#011638;fill-opacity:1;stroke-width:0.461873" /></g><g
         id="g238-1-5-2"
         transform="matrix(2.8229647,0,0,2.8229647,-53.221183,-24.368734)"
         style="display:inline"
         inkscape:label="c4"><g
           id="g237-5-0-0"
           transform="translate(-63.500003,-42.333335)"><g
             id="g236-0-0-7"
             transform="translate(0,-42.333335)"><rect
               style="fill:#fefaee;fill-opacity:1;stroke:#011638;stroke-width:1.35;stroke-linejoin:round;stroke-dasharray:none;stroke-opacity:1"
               id="rect231-8-8-7"
               width="23.036411"
               height="14.841301"
               x="85.177193"
               y="116.06292"
               ry="2.1936679" /><g
               id="g235-4-3-9"
               transform="translate(1.2169867,10.583334)"
               style="fill:#011638;fill-opacity:1;stroke:#011638;stroke-width:0.1;stroke-dasharray:none;stroke-opacity:1"><g
                 id="g234-9-7-7"
                 transform="translate(0.52916667,-1.0583333)"
                 style="fill:#011638;fill-opacity:1;stroke:#011638;stroke-opacity:1"><rect
                   style="fill:#011638;fill-opacity:1;stroke:#011638;stroke-width:0.65;stroke-linejoin:round;stroke-dasharray:none;stroke-opacity:1"
                   id="rect232-3-0-5"
                   width="4.859839"
                   height="0.69142914"
                   x="97.610817"
                   y="114.62518"
                   ry="0.34571323" /><rect
                   style="fill:#011638;fill-opacity:1;stroke:#011638;stroke-width:0.3;stroke-linejoin:round;stroke-dasharray:none;stroke-opacity:1"
                   id="rect233-0-1-3"
                   width="7.0757947"
                   height="0.69142914"
                   x="97.435814"
                   y="116.6641"
                   ry="0.34571323" /><rect
                   style="fill:#011638;fill-opacity:1;stroke:#011638;stroke-width:0.3;stroke-linejoin:round;stroke-dasharray:none;stroke-opacity:1"
                   id="rect234-5-3-9"
                   width="7.1257949"
                   height="0.60335201"
                   x="97.435814"
                   y="118.52802"
                   ry="0.29299217" /></g></g></g></g><path
           d="m 30.849614,39.509721 c 0,0.382413 -0.258656,0.692788 -0.577343,0.692788 -0.318687,0 -0.577343,-0.309919 -0.577343,-0.692788 0,-0.382895 0.258656,-0.692827 0.577343,-0.692827 0.318687,0 0.577343,0.310388 0.577343,0.692827 z m -3.57951,-0.692827 c -0.318687,0 -0.577342,0.310388 -0.577342,0.692827 0,0.382413 0.258655,0.692788 0.577342,0.692788 0.318687,0 0.577343,-0.310375 0.577343,-0.692788 0,-0.382439 -0.258656,-0.692827 -0.577343,-0.692827 z m 1.501092,3.858482 c 1.03228,0 1.385617,-1.087238 1.385617,-1.087238 h -2.771234 c 0,0 0.391202,1.087238 1.385617,1.087238 z m 5.542467,-2.790172 c 0,0.815213 -0.454953,1.843336 -1.449821,2.265949 -1.084474,1.723255 -2.532918,2.67008 -4.092646,2.67008 -1.559747,0 -3.008191,-0.946825 -4.093117,-2.67008 -0.994415,-0.422613 -1.44935,-1.450736 -1.44935,-2.265949 0,-0.67988 0.178737,-1.356514 0.77687,-1.679356 -0.174218,-1.067398 -0.05412,-2.852531 1.936617,-3.506996 0.476198,-0.919139 1.443363,-1.886285 2.82898,-1.886285 1.385617,0 2.352764,0.967146 2.828964,1.885817 1.990662,0.654933 2.110745,2.43961 1.936633,3.507464 0.598116,0.322842 0.77687,0.999476 0.77687,1.679356 z M 33.30862,39.306933 c -2.164794,-0.119218 -3.155979,-2.152317 -3.344423,-3.415077 -0.538989,2.925038 -4.156851,0.82768 -4.570676,4.180867 -0.409219,-0.215695 -0.792111,-0.604115 -1.023045,-0.997171 -0.460033,0.460483 -0.249421,1.918619 0.767165,2.262707 0.103524,0.03509 0.190749,0.10528 0.247097,0.198605 0.919598,1.522333 2.122304,2.360642 3.386458,2.360642 1.264135,0 2.466391,-0.838309 3.385986,-2.360642 0.05639,-0.09325 0.144017,-0.163573 0.247097,-0.198605 0.817983,-0.276649 1.162524,-1.278927 0.904341,-2.031326 z"
           id="path237-2-4-9"
           style="fill:#011638;fill-opacity:1;stroke-width:0.461873" /></g><g
         id="g245-3-3-4"
         transform="matrix(0.87234404,2.684799,-2.684799,0.87234404,146.66023,-80.321931)"
         inkscape:transform-center-x="4.8968208"
         inkscape:transform-center-y="-15.072285"
         style="display:inline"
         inkscape:label="c3"><g
           id="g244-8-7-9"
           transform="translate(-63.500003,-42.333335)"
           style="stroke:#011638;stroke-opacity:1"><g
             id="g243-7-7-1"
             transform="translate(0,-42.333335)"
             style="stroke:#011638;stroke-opacity:1"><rect
               style="fill:#fefaee;fill-opacity:1;stroke:#011638;stroke-width:1.35;stroke-linejoin:round;stroke-dasharray:none;stroke-opacity:1"
               id="rect238-8-5-5"
               width="23.036411"
               height="14.841301"
               x="85.177193"
               y="116.06292"
               ry="2.1936679" /><g
               id="g242-0-1-9"
               transform="translate(1.2169867,10.583334)"
               style="stroke:#011638;stroke-width:0.1;stroke-dasharray:none;stroke-opacity:1"><g
                 id="g241-4-2-8"
                 transform="translate(0.52916667,-1.0583333)"
                 style="fill:#011638;fill-opacity:1;stroke:#011638;stroke-opacity:1"><rect
                   style="fill:#011638;fill-opacity:1;stroke:#011638;stroke-width:0.65;stroke-linejoin:round;stroke-dasharray:none;stroke-opacity:1"
                   id="rect239-5-6-3"
                   width="4.859839"
                   height="0.69142914"
                   x="97.610817"
                   y="114.62518"
                   ry="0.34571323" /><rect
                   style="fill:#011638;fill-opacity:1;stroke:#011638;stroke-width:0.3;stroke-linejoin:round;stroke-dasharray:none;stroke-opacity:1"
                   id="rect240-7-6-0"
                   width="7.0757947"
                   height="0.69142914"
                   x="97.435814"
                   y="116.6641"
                   ry="0.34571323" /><rect
                   style="fill:#011638;fill-opacity:1;stroke:#011638;stroke-width:0.3;stroke-linejoin:round;stroke-dasharray:none;stroke-opacity:1"
                   id="rect241-1-5-9"
                   width="7.1257949"
                   height="0.60335201"
                   x="97.435814"
                   y="118.52802"
                   ry="0.29299217" /></g></g></g></g><path
           d="m 30.849614,39.509721 c 0,0.382413 -0.258656,0.692788 -0.577343,0.692788 -0.318687,0 -0.577343,-0.309919 -0.577343,-0.692788 0,-0.382895 0.258656,-0.692827 0.577343,-0.692827 0.318687,0 0.577343,0.310388 0.577343,0.692827 z m -3.57951,-0.692827 c -0.318687,0 -0.577342,0.310388 -0.577342,0.692827 0,0.382413 0.258655,0.692788 0.577342,0.692788 0.318687,0 0.577343,-0.310375 0.577343,-0.692788 0,-0.382439 -0.258656,-0.692827 -0.577343,-0.692827 z m 1.501092,3.858482 c 1.03228,0 1.385617,-1.087238 1.385617,-1.087238 h -2.771234 c 0,0 0.391202,1.087238 1.385617,1.087238 z m 5.542467,-2.790172 c 0,0.815213 -0.454953,1.843336 -1.449821,2.265949 -1.084474,1.723255 -2.532918,2.67008 -4.092646,2.67008 -1.559747,0 -3.008191,-0.946825 -4.093117,-2.67008 -0.994415,-0.422613 -1.44935,-1.450736 -1.44935,-2.265949 0,-0.67988 0.178737,-1.356514 0.77687,-1.679356 -0.174218,-1.067398 -0.05412,-2.852531 1.936617,-3.506996 0.476198,-0.919139 1.443363,-1.886285 2.82898,-1.886285 1.385617,0 2.352764,0.967146 2.828964,1.885817 1.990662,0.654933 2.110745,2.43961 1.936633,3.507464 0.598116,0.322842 0.77687,0.999476 0.77687,1.679356 z M 33.30862,39.306933 c -2.164794,-0.119218 -3.155979,-2.152317 -3.344423,-3.415077 -0.538989,2.925038 -4.156851,0.82768 -4.570676,4.180867 -0.409219,-0.215695 -0.792111,-0.604115 -1.023045,-0.997171 -0.460033,0.460483 -0.249421,1.918619 0.767165,2.262707 0.103524,0.03509 0.190749,0.10528 0.247097,0.198605 0.919598,1.522333 2.122304,2.360642 3.386458,2.360642 1.264135,0 2.466391,-0.838309 3.385986,-2.360642 0.05639,-0.09325 0.144017,-0.163573 0.247097,-0.198605 0.817983,-0.276649 1.162524,-1.278927 0.904341,-2.031326 z"
           id="path244-0-4-0"
           style="fill:#011638;fill-opacity:1;stroke-width:0.461873" /></g><g
         id="g9-6-1-7"
         transform="matrix(-0.87234402,2.684799,2.684799,0.87234402,23.847382,-80.459594)"
         inkscape:transform-center-x="-12.821616"
         inkscape:transform-center-y="-9.3126434"
         style="display:inline"
         inkscape:label="c2"><g
           id="g8-0-7-6"
           inkscape:transform-center-x="-12.821197"
           inkscape:transform-center-y="9.3176489"
           transform="rotate(-36,49.097297,38.814874)"><g
             id="g7-3-1-8"
             transform="translate(-63.447444,-42.333335)"
             inkscape:transform-center-x="-15.849557"
             inkscape:transform-center-y="0.00061308105"><g
               id="g6-3-3-3"
               transform="translate(0,-42.333335)"><rect
                 style="fill:#fefaee;fill-opacity:1;stroke:#011638;stroke-width:1.35;stroke-linejoin:round;stroke-dasharray:none;stroke-opacity:1"
                 id="rect1-5-4-8"
                 width="23.036411"
                 height="14.841301"
                 x="85.177193"
                 y="116.06292"
                 ry="2.1936679" /><g
                 id="g5-0-8-6"
                 transform="translate(1.2169867,10.583334)"
                 style="stroke-width:0.1;stroke-dasharray:none"><g
                   id="g4-2-6-1"
                   transform="translate(0.52916667,-1.0583333)"
                   style="fill:#011638;fill-opacity:1;stroke:#011638;stroke-opacity:1"><rect
                     style="fill:#011638;fill-opacity:1;stroke:#011638;stroke-width:0.65;stroke-linejoin:round;stroke-dasharray:none;stroke-opacity:1"
                     id="rect2-3-1-9"
                     width="4.859839"
                     height="0.69142914"
                     x="99.494743"
                     y="114.62518"
                     ry="0.34571323" /><rect
                     style="fill:#011638;fill-opacity:1;stroke:#011638;stroke-width:0.3;stroke-linejoin:round;stroke-dasharray:none;stroke-opacity:1"
                     id="rect3-2-5-6"
                     width="7.0757947"
                     height="0.69142914"
                     x="97.435814"
                     y="116.6641"
                     ry="0.34571323" /><rect
                     style="fill:#011638;fill-opacity:1;stroke:#011638;stroke-width:0.3;stroke-linejoin:round;stroke-dasharray:none;stroke-opacity:1"
                     id="rect4-7-0-7"
                     width="7.1257949"
                     height="0.60335201"
                     x="97.435814"
                     y="118.52802"
                     ry="0.29299217" /></g></g></g></g><path
             d="m 30.849614,39.509721 c 0,0.382413 -0.258656,0.692788 -0.577343,0.692788 -0.318687,0 -0.577343,-0.309919 -0.577343,-0.692788 0,-0.382895 0.258656,-0.692827 0.577343,-0.692827 0.318687,0 0.577343,0.310388 0.577343,0.692827 z m -3.57951,-0.692827 c -0.318687,0 -0.577342,0.310388 -0.577342,0.692827 0,0.382413 0.258655,0.692788 0.577342,0.692788 0.318687,0 0.577343,-0.310375 0.577343,-0.692788 0,-0.382439 -0.258656,-0.692827 -0.577343,-0.692827 z m 1.501092,3.858482 c 1.03228,0 1.385617,-1.087238 1.385617,-1.087238 h -2.771234 c 0,0 0.391202,1.087238 1.385617,1.087238 z m 5.542467,-2.790172 c 0,0.815213 -0.454953,1.843336 -1.449821,2.265949 -1.084474,1.723255 -2.532918,2.67008 -4.092646,2.67008 -1.559747,0 -3.008191,-0.946825 -4.093117,-2.67008 -0.994415,-0.422613 -1.44935,-1.450736 -1.44935,-2.265949 0,-0.67988 0.178737,-1.356514 0.77687,-1.679356 -0.174218,-1.067398 -0.05412,-2.852531 1.936617,-3.506996 0.476198,-0.919139 1.443363,-1.886285 2.82898,-1.886285 1.385617,0 2.352764,0.967146 2.828964,1.885817 1.990662,0.654933 2.110745,2.43961 1.936633,3.507464 0.598116,0.322842 0.77687,0.999476 0.77687,1.679356 z M 33.30862,39.306933 c -2.164794,-0.119218 -3.155979,-2.152317 -3.344423,-3.415077 -0.538989,2.925038 -4.156851,0.82768 -4.570676,4.180867 -0.409219,-0.215695 -0.792111,-0.604115 -1.023045,-0.997171 -0.460033,0.460483 -0.249421,1.918619 0.767165,2.262707 0.103524,0.03509 0.190749,0.10528 0.247097,0.198605 0.919598,1.522333 2.122304,2.360642 3.386458,2.360642 1.264135,0 2.466391,-0.838309 3.385986,-2.360642 0.05639,-0.09325 0.144017,-0.163573 0.247097,-0.198605 0.817983,-0.276649 1.162524,-1.278927 0.904341,-2.031326 z"
             id="path7-1-6-8"
             style="fill:#011638;fill-opacity:1;stroke-width:0.461873" /></g></g><g
         id="g310-0-5-9"
         transform="matrix(-2.8229647,0,0,2.8229647,223.8269,-24.364951)"
         inkscape:transform-center-x="-12.818947"
         inkscape:transform-center-y="9.316317"
         style="display:inline"
         inkscape:label="c1"><g
           id="g309-0-3-7"
           inkscape:transform-center-x="-12.821197"
           inkscape:transform-center-y="9.3176489"
           transform="rotate(-36,49.097297,38.814874)"><g
             id="g308-9-1-5"
             transform="translate(-63.447444,-42.333335)"
             inkscape:transform-center-x="-15.849557"
             inkscape:transform-center-y="0.00061308105"><g
               id="g307-7-0-5"
               transform="translate(0,-42.333335)"><rect
                 style="display:inline;fill:#fefaee;fill-opacity:1;stroke:#011638;stroke-width:1.35;stroke-linejoin:round;stroke-dasharray:none;stroke-opacity:1"
                 id="rect302-1-1-2"
                 width="23.036411"
                 height="14.841301"
                 x="85.177193"
                 y="116.06292"
                 ry="2.1936679" /><g
                 id="g306-7-9-4"
                 transform="translate(1.2169867,10.583334)"
                 style="stroke-width:0.1;stroke-dasharray:none"><g
                   id="g305-4-5-9"
                   transform="translate(0.52916667,-1.0583333)"
                   style="display:inline;fill:#011638;fill-opacity:1;stroke:#011638;stroke-opacity:1"><rect
                     style="fill:#011638;fill-opacity:1;stroke:#011638;stroke-width:0.65;stroke-linejoin:round;stroke-dasharray:none;stroke-opacity:1"
                     id="rect303-5-7-4"
                     width="4.859839"
                     height="0.69142914"
                     x="99.494743"
                     y="114.62518"
                     ry="0.34571323" /><rect
                     style="fill:#011638;fill-opacity:1;stroke:#011638;stroke-width:0.3;stroke-linejoin:round;stroke-dasharray:none;stroke-opacity:1"
                     id="rect304-1-6-4"
                     width="7.0757947"
                     height="0.69142914"
                     x="97.435814"
                     y="116.6641"
                     ry="0.34571323" /><rect
                     style="fill:#011638;fill-opacity:1;stroke:#011638;stroke-width:0.3;stroke-linejoin:round;stroke-dasharray:none;stroke-opacity:1"
                     id="rect305-7-8-7"
                     width="7.1257949"
                     height="0.60335201"
                     x="97.435814"
                     y="118.52802"
                     ry="0.29299217" /></g></g></g></g><path
             d="m 30.849614,39.509721 c 0,0.382413 -0.258656,0.692788 -0.577343,0.692788 -0.318687,0 -0.577343,-0.309919 -0.577343,-0.692788 0,-0.382895 0.258656,-0.692827 0.577343,-0.692827 0.318687,0 0.577343,0.310388 0.577343,0.692827 z m -3.57951,-0.692827 c -0.318687,0 -0.577342,0.310388 -0.577342,0.692827 0,0.382413 0.258655,0.692788 0.577342,0.692788 0.318687,0 0.577343,-0.310375 0.577343,-0.692788 0,-0.382439 -0.258656,-0.692827 -0.577343,-0.692827 z m 1.501092,3.858482 c 1.03228,0 1.385617,-1.087238 1.385617,-1.087238 h -2.771234 c 0,0 0.391202,1.087238 1.385617,1.087238 z m 5.542467,-2.790172 c 0,0.815213 -0.454953,1.843336 -1.449821,2.265949 -1.084474,1.723255 -2.532918,2.67008 -4.092646,2.67008 -1.559747,0 -3.008191,-0.946825 -4.093117,-2.67008 -0.994415,-0.422613 -1.44935,-1.450736 -1.44935,-2.265949 0,-0.67988 0.178737,-1.356514 0.77687,-1.679356 -0.174218,-1.067398 -0.05412,-2.852531 1.936617,-3.506996 0.476198,-0.919139 1.443363,-1.886285 2.82898,-1.886285 1.385617,0 2.352764,0.967146 2.828964,1.885817 1.990662,0.654933 2.110745,2.43961 1.936633,3.507464 0.598116,0.322842 0.77687,0.999476 0.77687,1.679356 z M 33.30862,39.306933 c -2.164794,-0.119218 -3.155979,-2.152317 -3.344423,-3.415077 -0.538989,2.925038 -4.156851,0.82768 -4.570676,4.180867 -0.409219,-0.215695 -0.792111,-0.604115 -1.023045,-0.997171 -0.460033,0.460483 -0.249421,1.918619 0.767165,2.262707 0.103524,0.03509 0.190749,0.10528 0.247097,0.198605 0.919598,1.522333 2.122304,2.360642 3.386458,2.360642 1.264135,0 2.466391,-0.838309 3.385986,-2.360642 0.05639,-0.09325 0.144017,-0.163573 0.247097,-0.198605 0.817983,-0.276649 1.162524,-1.278927 0.904341,-2.031326 z"
             id="path308-8-5-9"
             style="fill:#011638;fill-opacity:1;stroke-width:0.461873"
             inkscape:label="path308" /></g></g><g
         id="g16-2-4-5"
         transform="matrix(0.87234404,-2.684799,2.684799,0.87234404,-61.773251,183.02031)"
         inkscape:transform-center-x="4.897647"
         inkscape:transform-center-y="15.072025"
         style="display:inline"
         inkscape:label="c5-corner"><path
           id="rect9-5-7-5"
           style="display:inline;fill:#fefaee;fill-opacity:1;stroke:none;stroke-width:1.35;stroke-linejoin:round;stroke-dasharray:none"
           d="m 44.602575,38.822792 -9.495097,0.09398 0.707694,7.273522 6.704792,0.04749 c 1.215291,0 2.193572,-0.978639 2.193572,-2.19393 z"
           sodipodi:nodetypes="cccccc"
           inkscape:label="corner-fill" /><path
           style="color:#000000;display:inline;fill:#011638;fill-opacity:1;stroke:#011638;stroke-width:0.1;stroke-linejoin:round;stroke-dasharray:none;stroke-opacity:1;-inkscape-stroke:none"
           d="m 34.632812,46.912109 h 7.886719 c 1.577662,0 2.869141,-1.291611 2.869141,-2.86914 v -6.771485 l -1.34961,0.929688 v 5.841797 c 0,0.85305 -0.666613,1.519531 -1.519531,1.519531 h -7.396484"
           id="path16-4-9-6"
           sodipodi:nodetypes="cssccssc"
           inkscape:label="corner-stroke" /><g
           id="g12-5-6-1"
           transform="translate(-61.75385,-75.141669)"
           style="fill:#011638;fill-opacity:1;stroke:#011638;stroke-width:0.1;stroke-dasharray:none;stroke-opacity:1"><rect
             style="fill:#011638;fill-opacity:1;stroke:#011638;stroke-width:0.65;stroke-linejoin:round;stroke-dasharray:none;stroke-opacity:1"
             id="rect10-3-6-5"
             width="4.859839"
             height="0.69142914"
             x="97.610817"
             y="114.62518"
             ry="0.34571323" /><rect
             style="fill:#011638;fill-opacity:1;stroke:#011638;stroke-width:0.3;stroke-linejoin:round;stroke-dasharray:none;stroke-opacity:1"
             id="rect11-0-6-9"
             width="7.0757947"
             height="0.69142914"
             x="97.435814"
             y="116.6641"
             ry="0.34571323" /><rect
             style="fill:#011638;fill-opacity:1;stroke:#011638;stroke-width:0.3;stroke-linejoin:round;stroke-dasharray:none;stroke-opacity:1"
             id="rect12-1-6-1"
             width="7.1257949"
             height="0.60335201"
             x="97.435814"
             y="118.52802"
             ry="0.29299217" /></g></g></g><g
       aria-label="PairSonic"
       transform="matrix(0.42512076,0,0,0.42512076,-627.7976,-114.80715)"
       id="text14322-0-7-5-3"
       style="font-size:346.667px;font-family:'Times New Roman';-inkscape-font-specification:'Times New Roman, ';letter-spacing:-5.53px;word-spacing:-1.73px;white-space:pre;shape-inside:url(#rect14324-79-3-1-4);display:none;fill:#fefaee;stroke-width:23.811"
       inkscape:label="Text"><path
         d="m 877.54706,616.5399 h 36.40003 v -97.76009 h 75.92031 c 47.1471,0 79.3871,-29.4667 79.3871,-72.10674 0,-43.33337 -31.8934,-72.80006 -79.3871,-72.80006 H 877.54706 Z M 986.05385,405.76637 c 28.42725,0 46.45395,15.94668 46.45395,40.9067 0,25.30669 -18.0267,41.25338 -46.45395,41.25338 h -72.10676 v -82.16008 z"
         style="font-weight:500;font-family:'Red Hat Display';-inkscape-font-specification:'Red Hat Display Medium';fill:#fefaee;fill-opacity:1;stroke:#5b50a7;stroke-opacity:1;paint-order:markers stroke fill"
         id="path14133" /><path
         d="m 1143.804,619.6599 c 21.4934,0 39.1734,-5.89334 54.7734,-18.37335 v 15.25335 h 33.9734 V 499.71312 c 0,-40.56003 -26.3467,-63.09339 -72.1068,-63.09339 -23.2267,0 -46.1067,5.54667 -72.4534,18.02669 l 12.8267,26.00002 c 21.84,-10.40001 38.48,-14.90668 54.7734,-14.90668 28.08,0 42.9867,12.48001 42.9867,37.44003 v 18.72002 c -14.9067,-6.24 -31.2,-9.70667 -48.1867,-9.70667 -44.3734,0 -71.4134,20.45335 -71.4134,53.73338 0,31.89336 26.3467,53.73338 64.8267,53.73338 z m -31.5467,-54.42671 c 0,-17.68002 15.6,-29.12003 40.9067,-29.12003 17.68,0 31.8934,3.46667 45.4134,10.74667 v 30.5067 c -12.48,11.09334 -28.08,16.64002 -46.8001,16.64002 -23.5733,0 -39.52,-11.78668 -39.52,-28.77336 z"
         style="font-weight:500;font-family:'Red Hat Display';-inkscape-font-specification:'Red Hat Display Medium';fill:#fefaee;fill-opacity:1;stroke:#5b50a7;stroke-opacity:1;paint-order:markers stroke fill"
         id="path14135" /><path
         d="m 1284.2207,411.65971 c 11.7866,0 21.4933,-9.70668 21.4933,-21.49336 0,-11.78667 -9.7067,-21.49335 -21.4933,-21.49335 -11.7867,0 -21.1467,9.70668 -21.1467,21.49335 0,11.78668 9.36,21.49336 21.1467,21.49336 z m 17.3333,28.42669 h -34.6667 v 176.4535 h 34.6667 z"
         style="font-weight:500;font-family:'Red Hat Display';-inkscape-font-specification:'Red Hat Display Medium';fill:#fefaee;fill-opacity:1;stroke:#5b50a7;stroke-opacity:1;paint-order:markers stroke fill"
         id="path14137" /><path
         d="m 1336.9302,616.5399 h 34.6667 V 498.67312 c 9.0133,-21.14668 25.3067,-32.24003 45.76,-32.24003 6.9334,0 13.8667,1.38667 20.4534,3.81334 V 439.0464 c -5.2,-2.08 -10.0534,-2.77334 -17.68,-2.77334 -20.8,0 -37.7867,9.36001 -48.5334,26.3467 V 440.0864 h -34.6667 z"
         style="font-weight:500;font-family:'Red Hat Display';-inkscape-font-specification:'Red Hat Display Medium';fill:#fefaee;fill-opacity:1;stroke:#5b50a7;stroke-opacity:1;paint-order:markers stroke fill"
         id="path14139" /><path
         d="m 1458.6195,576.32653 c 27.7333,28.08003 65.1734,43.68004 104.0001,43.68004 57.8934,0 96.7201,-29.81336 96.7201,-74.5334 0,-37.78671 -23.2267,-58.93339 -74.5334,-67.2534 l -39.1734,-6.24001 c -31.2,-5.2 -43.3334,-14.56001 -43.3334,-34.32003 0,-21.49335 21.1467,-36.05336 52.6934,-36.05336 27.04,0 53.04,9.70667 79.3867,29.81336 l 20.1067,-27.73336 c -27.3867,-21.14669 -63.0934,-32.93337 -97.7601,-32.93337 -54.08,0 -89.4401,27.3867 -89.4401,69.68007 0,35.01336 21.8401,55.81338 66.2134,63.09339 l 40.5601,6.58667 c 35.36,5.89334 49.2267,16.64002 49.2267,38.13337 0,23.92003 -23.92,40.56004 -58.9334,40.56004 -30.16,0 -57.2001,-12.48001 -83.5467,-38.13337 z"
         style="font-weight:500;font-family:'Red Hat Display';-inkscape-font-specification:'Red Hat Display Medium';fill:#fefaee;fill-opacity:1;stroke:#5b50a7;stroke-opacity:1;paint-order:markers stroke fill"
         id="path14141" /><path
         d="m 1678.7688,528.13982 c 0,51.65338 40.56,91.86675 91.8667,91.86675 51.3067,0 91.5201,-40.21337 91.5201,-91.86675 0,-51.30672 -40.2134,-91.52009 -91.5201,-91.52009 -51.3067,0 -91.8667,40.21337 -91.8667,91.52009 z m 91.8667,61.36005 c -32.5867,0 -57.8934,-27.04002 -57.8934,-61.36005 0,-34.32003 25.6534,-61.01339 57.8934,-61.01339 31.8934,0 57.5467,26.69336 57.5467,61.01339 0,34.32003 -25.6533,61.36005 -57.5467,61.36005 z"
         style="font-weight:500;font-family:'Red Hat Display';-inkscape-font-specification:'Red Hat Display Medium';fill:#fefaee;fill-opacity:1;stroke:#5b50a7;stroke-opacity:1;paint-order:markers stroke fill"
         id="path14143" /><path
         d="m 1889.5589,616.5399 h 34.6667 V 489.65978 c 9.7067,-14.90668 24.96,-22.88002 43.68,-22.88002 26.6934,0 43.6801,16.98668 43.6801,44.72004 v 105.0401 h 34.6667 V 505.60646 c 0,-40.9067 -28.4267,-68.98673 -68.9868,-68.98673 -21.1467,0 -39.1733,7.28001 -53.04,21.14669 V 440.0864 h -34.6667 z"
         style="font-weight:500;font-family:'Red Hat Display';-inkscape-font-specification:'Red Hat Display Medium';fill:#fefaee;fill-opacity:1;stroke:#5b50a7;stroke-opacity:1;paint-order:markers stroke fill"
         id="path14145" /><path
         d="m 2097.9222,411.65971 c 11.7867,0 21.4934,-9.70668 21.4934,-21.49336 0,-11.78667 -9.7067,-21.49335 -21.4934,-21.49335 -11.7867,0 -21.1467,9.70668 -21.1467,21.49335 0,11.78668 9.36,21.49336 21.1467,21.49336 z m 17.3333,28.42669 h -34.6666 v 176.4535 h 34.6666 z"
         style="font-weight:500;font-family:'Red Hat Display';-inkscape-font-specification:'Red Hat Display Medium';fill:#fefaee;fill-opacity:1;stroke:#5b50a7;stroke-opacity:1;paint-order:markers stroke fill"
         id="path14147" /><path
         d="m 2234.8719,589.15321 c -32.5867,0 -57.8934,-26.34669 -57.8934,-61.01339 0,-33.97337 24.96,-60.66673 57.2001,-60.66673 18.0266,0 35.0133,7.62668 48.5333,22.18669 l 21.8401,-23.57335 c -18.3734,-18.72002 -44.3734,-29.4667 -71.0668,-29.4667 -50.96,0 -90.8267,40.21337 -90.8267,91.52009 0,51.65338 39.8667,91.52008 90.8267,91.52008 26.3467,0 51.3067,-10.74667 69.6801,-29.46669 l -20.8,-22.53336 c -14.2134,14.56002 -29.8134,21.49336 -47.4934,21.49336 z"
         style="font-weight:500;font-family:'Red Hat Display';-inkscape-font-specification:'Red Hat Display Medium';fill:#fefaee;fill-opacity:1;stroke:#5b50a7;stroke-opacity:1;paint-order:markers stroke fill"
         id="path14149" /></g></g></svg>
